M48
METRIC,LZ,000.000
;FILE_FORMAT=3:3
;TYPE=PLATED
;Layer: PTH_Through
;EasyEDA v6.5.22, 2023-01-18 22:18:13
;eba29598cffc45a1a2b09f1bfeec2ae0,7be1179030e74d40a97a3c751b95adb4,10
;Gerber Generator version 0.2
;Holesize 1 = 1.000 mm
T01C1.000
%
G05
G90
T01
X018539Y-018288G85X018545Y-018288
X033779Y-066548G85X033785Y-066548
X018539Y-020828G85X018545Y-020828
X033779Y-064008G85X033785Y-064008
X018539Y-023368G85X018545Y-023368
X033779Y-061468G85X033785Y-061468
X018539Y-025908G85X018545Y-025908
X033779Y-058928G85X033785Y-058928
X018539Y-028448G85X018545Y-028448
X033779Y-056388G85X033785Y-056388
X018539Y-030988G85X018545Y-030988
X033779Y-053848G85X033785Y-053848
X018539Y-033528G85X018545Y-033528
X033779Y-051308G85X033785Y-051308
X018539Y-036068G85X018545Y-036068
X033779Y-048768G85X033785Y-048768
X018539Y-038608G85X018545Y-038608
X033779Y-046228G85X033785Y-046228
X018539Y-041148G85X018545Y-041148
X033779Y-043688G85X033785Y-043688
X018539Y-043688G85X018545Y-043688
X033779Y-041148G85X033785Y-041148
X018539Y-046228G85X018545Y-046228
X033779Y-038608G85X033785Y-038608
X018539Y-048768G85X018545Y-048768
X033779Y-036068G85X033785Y-036068
X018539Y-051308G85X018545Y-051308
X033779Y-033528G85X033785Y-033528
X018539Y-053848G85X018545Y-053848
X033779Y-030988G85X033785Y-030988
X018539Y-056388G85X018545Y-056388
X033779Y-028448G85X033785Y-028448
X018539Y-058928G85X018545Y-058928
X033779Y-025908G85X033785Y-025908
X018539Y-061468G85X018545Y-061468
X033779Y-023368G85X033785Y-023368
X018539Y-064008G85X018545Y-064008
X033779Y-020828G85X033785Y-020828
X018539Y-066548G85X018545Y-066548
X033779Y-018288G85X033785Y-018288
M30
