M48
METRIC,LZ,000.000
;FILE_FORMAT=3:3
;TYPE=PLATED
;Layer: PTH_Through_Via
;EasyEDA v6.5.22, 2023-01-18 22:18:13
;eba29598cffc45a1a2b09f1bfeec2ae0,7be1179030e74d40a97a3c751b95adb4,10
;Gerber Generator version 0.2
;Holesize 1 = 0.310 mm
T01C0.310
%
G05
G90
T01
X035372Y-037252
X031399Y-029246
X031057Y-027061
X027930Y-059273
X030028Y-030396
X030787Y-042037
X028204Y-050089
X027432Y-020081
X021953Y-042370
X030137Y-045809
X027450Y-027605
X023670Y-029312
X019858Y-029352
X027442Y-034435
X026670Y-022733
X019850Y-024524
X019837Y-034549
X020935Y-020973
X022311Y-048433
X025766Y-039540
X031082Y-045552
X035471Y-049863
X036317Y-046713
X035954Y-038677
X027897Y-051239
X021933Y-047079
X031232Y-050447
X031133Y-051907
X031046Y-062484
X031585Y-038570
X031669Y-040203
X021173Y-040630
X031361Y-026048
X025748Y-036038
X016289Y-036012
X036962Y-021166
X031656Y-018191
X028029Y-026330
X029192Y-030353
M30
