G04 Layer: BottomSolderMaskLayer*
G04 EasyEDA v6.5.22, 2023-01-18 22:18:13*
G04 eba29598cffc45a1a2b09f1bfeec2ae0,7be1179030e74d40a97a3c751b95adb4,10*
G04 Gerber Generator version 0.2*
G04 Scale: 100 percent, Rotated: No, Reflected: No *
G04 Dimensions in millimeters *
G04 leading zeros omitted , absolute positions ,4 integer and 5 decimal *
%FSLAX45Y45*%
%MOMM*%

%AMMACRO1*1,1,$1,$2,$3*1,1,$1,$4,$5*1,1,$1,0-$2,0-$3*1,1,$1,0-$4,0-$5*20,1,$1,$2,$3,$4,$5,0*20,1,$1,$4,$5,0-$2,0-$3,0*20,1,$1,0-$2,0-$3,0-$4,0-$5,0*20,1,$1,0-$4,0-$5,$2,$3,0*4,1,4,$2,$3,$4,$5,0-$2,0-$3,0-$4,0-$5,$2,$3,0*%
%ADD10MACRO1,0.2032X0.5X0.55X-0.5X0.55*%
%ADD11O,2.0031963999999998X0.8031988000000001*%
%ADD12MACRO1,0.2032X-1.1989X0.8001X1.1989X0.8001*%
%ADD13O,2.6031952X1.8031968*%

%LPD*%
D10*
G01*
X2737010Y-3073401D03*
G01*
X2597010Y-3073401D03*
D11*
G01*
X2357120Y-2743200D03*
G01*
X2357120Y-2616200D03*
G01*
X2357120Y-2489200D03*
G01*
X2357120Y-2362200D03*
G01*
X2357120Y-2235200D03*
G01*
X2357120Y-2108200D03*
G01*
X2357120Y-1981200D03*
G01*
X2357120Y-1854200D03*
G01*
X2951479Y-2743200D03*
G01*
X2951479Y-2616200D03*
G01*
X2951479Y-2489200D03*
G01*
X2951479Y-2362200D03*
G01*
X2951479Y-2235200D03*
G01*
X2951479Y-2108200D03*
G01*
X2951479Y-1981200D03*
G01*
X2951479Y-1854200D03*
G01*
X2964179Y-4838700D03*
G01*
X2964179Y-4965700D03*
G01*
X2964179Y-5092700D03*
G01*
X2964179Y-5219700D03*
G01*
X2964179Y-5346700D03*
G01*
X2964179Y-5473700D03*
G01*
X2964179Y-5600700D03*
G01*
X2964179Y-5727700D03*
G01*
X2369820Y-4838700D03*
G01*
X2369820Y-4965700D03*
G01*
X2369820Y-5092700D03*
G01*
X2369820Y-5219700D03*
G01*
X2369820Y-5346700D03*
G01*
X2369820Y-5473700D03*
G01*
X2369820Y-5600700D03*
G01*
X2369820Y-5727700D03*
G01*
X2951479Y-3390900D03*
G01*
X2951479Y-3517900D03*
G01*
X2951479Y-3644900D03*
G01*
X2951479Y-3771900D03*
G01*
X2951479Y-3898900D03*
G01*
X2951479Y-4025900D03*
G01*
X2951479Y-4152900D03*
G01*
X2951479Y-4279900D03*
G01*
X2357120Y-3390900D03*
G01*
X2357120Y-3517900D03*
G01*
X2357120Y-3644900D03*
G01*
X2357120Y-3771900D03*
G01*
X2357120Y-3898900D03*
G01*
X2357120Y-4025900D03*
G01*
X2357120Y-4152900D03*
G01*
X2357120Y-4279900D03*
D10*
G01*
X2775110Y-6134101D03*
G01*
X2635110Y-6134101D03*
G01*
X2749710Y-4546601D03*
G01*
X2609710Y-4546601D03*
D12*
G01*
X1854200Y-1828800D03*
D13*
G01*
X3378200Y-6654800D03*
G01*
X1854200Y-2082800D03*
G01*
X3378200Y-6400800D03*
G01*
X1854200Y-2336800D03*
G01*
X3378200Y-6146800D03*
G01*
X1854200Y-2590800D03*
G01*
X3378200Y-5892800D03*
G01*
X1854200Y-2844800D03*
G01*
X3378200Y-5638800D03*
G01*
X1854200Y-3098800D03*
G01*
X3378200Y-5384800D03*
G01*
X1854200Y-3352800D03*
G01*
X3378200Y-5130800D03*
G01*
X1854200Y-3606800D03*
G01*
X3378200Y-4876800D03*
G01*
X1854200Y-3860800D03*
G01*
X3378200Y-4622800D03*
G01*
X1854200Y-4114800D03*
G01*
X3378200Y-4368800D03*
G01*
X1854200Y-4368800D03*
G01*
X3378200Y-4114800D03*
G01*
X1854200Y-4622800D03*
G01*
X3378200Y-3860800D03*
G01*
X1854200Y-4876800D03*
G01*
X3378200Y-3606800D03*
G01*
X1854200Y-5130800D03*
G01*
X3378200Y-3352800D03*
G01*
X1854200Y-5384800D03*
G01*
X3378200Y-3098800D03*
G01*
X1854200Y-5638800D03*
G01*
X3378200Y-2844800D03*
G01*
X1854200Y-5892800D03*
G01*
X3378200Y-2590800D03*
G01*
X1854200Y-6146800D03*
G01*
X3378200Y-2336800D03*
G01*
X1854200Y-6400800D03*
G01*
X3378200Y-2082800D03*
G01*
X1854200Y-6654800D03*
G01*
X3378200Y-1828800D03*
M02*
