G04 Layer: TopSolderMaskLayer*
G04 EasyEDA v6.5.22, 2023-01-18 22:18:13*
G04 eba29598cffc45a1a2b09f1bfeec2ae0,7be1179030e74d40a97a3c751b95adb4,10*
G04 Gerber Generator version 0.2*
G04 Scale: 100 percent, Rotated: No, Reflected: No *
G04 Dimensions in millimeters *
G04 leading zeros omitted , absolute positions ,4 integer and 5 decimal *
%FSLAX45Y45*%
%MOMM*%

%AMMACRO1*1,1,$1,$2,$3*1,1,$1,$4,$5*1,1,$1,0-$2,0-$3*1,1,$1,0-$4,0-$5*20,1,$1,$2,$3,$4,$5,0*20,1,$1,$4,$5,0-$2,0-$3,0*20,1,$1,0-$2,0-$3,0-$4,0-$5,0*20,1,$1,0-$4,0-$5,$2,$3,0*4,1,4,$2,$3,$4,$5,0-$2,0-$3,0-$4,0-$5,$2,$3,0*%
%ADD10MACRO1,0.2032X-1.1989X0.8001X1.1989X0.8001*%
%ADD11O,2.6031952X1.8031968*%
%ADD12MACRO1,0.2032X-0.5X0.55X0.5X0.55*%
%ADD13O,0.8031988000000001X2.0031963999999998*%
%ADD14O,2.0031963999999998X0.8031988000000001*%

%LPD*%
D10*
G01*
X1854200Y-1828800D03*
D11*
G01*
X3378200Y-6654800D03*
G01*
X1854200Y-2082800D03*
G01*
X3378200Y-6400800D03*
G01*
X1854200Y-2336800D03*
G01*
X3378200Y-6146800D03*
G01*
X1854200Y-2590800D03*
G01*
X3378200Y-5892800D03*
G01*
X1854200Y-2844800D03*
G01*
X3378200Y-5638800D03*
G01*
X1854200Y-3098800D03*
G01*
X3378200Y-5384800D03*
G01*
X1854200Y-3352800D03*
G01*
X3378200Y-5130800D03*
G01*
X1854200Y-3606800D03*
G01*
X3378200Y-4876800D03*
G01*
X1854200Y-3860800D03*
G01*
X3378200Y-4622800D03*
G01*
X1854200Y-4114800D03*
G01*
X3378200Y-4368800D03*
G01*
X1854200Y-4368800D03*
G01*
X3378200Y-4114800D03*
G01*
X1854200Y-4622800D03*
G01*
X3378200Y-3860800D03*
G01*
X1854200Y-4876800D03*
G01*
X3378200Y-3606800D03*
G01*
X1854200Y-5130800D03*
G01*
X3378200Y-3352800D03*
G01*
X1854200Y-5384800D03*
G01*
X3378200Y-3098800D03*
G01*
X1854200Y-5638800D03*
G01*
X3378200Y-2844800D03*
G01*
X1854200Y-5892800D03*
G01*
X3378200Y-2590800D03*
G01*
X1854200Y-6146800D03*
G01*
X3378200Y-2336800D03*
G01*
X1854200Y-6400800D03*
G01*
X3378200Y-2082800D03*
G01*
X1854200Y-6654800D03*
G01*
X3378200Y-1828800D03*
D12*
G01*
X2850989Y-2870201D03*
G01*
X2990989Y-2870201D03*
G01*
X2850989Y-4114801D03*
G01*
X2990989Y-4114801D03*
D13*
G01*
X2171700Y-2494279D03*
G01*
X2298700Y-2494279D03*
G01*
X2425700Y-2494279D03*
G01*
X2552700Y-2494279D03*
G01*
X2679700Y-2494279D03*
G01*
X2806700Y-2494279D03*
G01*
X2933700Y-2494279D03*
G01*
X3060700Y-2494279D03*
G01*
X2171700Y-1899920D03*
G01*
X2298700Y-1899920D03*
G01*
X2425700Y-1899920D03*
G01*
X2552700Y-1899920D03*
G01*
X2679700Y-1899920D03*
G01*
X2806700Y-1899920D03*
G01*
X2933700Y-1899920D03*
G01*
X3060700Y-1899920D03*
G01*
X2171700Y-3815079D03*
G01*
X2298700Y-3815079D03*
G01*
X2425700Y-3815079D03*
G01*
X2552700Y-3815079D03*
G01*
X2679700Y-3815079D03*
G01*
X2806700Y-3815079D03*
G01*
X2933700Y-3815079D03*
G01*
X3060700Y-3815079D03*
G01*
X2171700Y-3220720D03*
G01*
X2298700Y-3220720D03*
G01*
X2425700Y-3220720D03*
G01*
X2552700Y-3220720D03*
G01*
X2679700Y-3220720D03*
G01*
X2806700Y-3220720D03*
G01*
X2933700Y-3220720D03*
G01*
X3060700Y-3220720D03*
D14*
G01*
X2369820Y-5486400D03*
G01*
X2369820Y-5613400D03*
G01*
X2369820Y-5740400D03*
G01*
X2369820Y-5867400D03*
G01*
X2369820Y-5994400D03*
G01*
X2369820Y-6121400D03*
G01*
X2369820Y-6248400D03*
G01*
X2369820Y-6375400D03*
G01*
X2964179Y-5486400D03*
G01*
X2964179Y-5613400D03*
G01*
X2964179Y-5740400D03*
G01*
X2964179Y-5867400D03*
G01*
X2964179Y-5994400D03*
G01*
X2964179Y-6121400D03*
G01*
X2964179Y-6248400D03*
G01*
X2964179Y-6375400D03*
D12*
G01*
X2635089Y-6654801D03*
G01*
X2775089Y-6654801D03*
M02*
