G04 Layer: TopSilkscreenLayer*
G04 EasyEDA v6.5.22, 2023-01-18 22:18:13*
G04 eba29598cffc45a1a2b09f1bfeec2ae0,7be1179030e74d40a97a3c751b95adb4,10*
G04 Gerber Generator version 0.2*
G04 Scale: 100 percent, Rotated: No, Reflected: No *
G04 Dimensions in millimeters *
G04 leading zeros omitted , absolute positions ,4 integer and 5 decimal *
%FSLAX45Y45*%
%MOMM*%

%ADD10C,0.1524*%
%ADD11C,0.1200*%
%ADD12C,0.2000*%
%ADD13C,0.2540*%
%ADD14C,0.4000*%
%ADD15C,0.0118*%

%LPD*%
G36*
X2659126Y-4008272D02*
G01*
X2654858Y-4008729D01*
X2651252Y-4010406D01*
X2647442Y-4013504D01*
X2640685Y-4019702D01*
X2521305Y-4017365D01*
X2516530Y-4023258D01*
X2514650Y-4026052D01*
X2513126Y-4029354D01*
X2512110Y-4032707D01*
X2511704Y-4035755D01*
X2511856Y-4038600D01*
X2512364Y-4041038D01*
X2513431Y-4043070D01*
X2515260Y-4044746D01*
X2518054Y-4046118D01*
X2521966Y-4047236D01*
X2527147Y-4048048D01*
X2533802Y-4048709D01*
X2552395Y-4049572D01*
X2636824Y-4050944D01*
X2646375Y-4063441D01*
X2630322Y-4061612D01*
X2613863Y-4060647D01*
X2589530Y-4059682D01*
X2555036Y-4058869D01*
X2533294Y-4058818D01*
X2525318Y-4059174D01*
X2518968Y-4059834D01*
X2514142Y-4060901D01*
X2510637Y-4062425D01*
X2508250Y-4064355D01*
X2506827Y-4066895D01*
X2506218Y-4069994D01*
X2506167Y-4073753D01*
X2506929Y-4083659D01*
X2506675Y-4088028D01*
X2505760Y-4091127D01*
X2500782Y-4097070D01*
X2498801Y-4102455D01*
X2498547Y-4108145D01*
X2500223Y-4113174D01*
X2501544Y-4115815D01*
X2501849Y-4117848D01*
X2501490Y-4118610D01*
X2539085Y-4118610D01*
X2540050Y-4118305D01*
X2544114Y-4118152D01*
X2545537Y-4118406D01*
X2546146Y-4118864D01*
X2545943Y-4119422D01*
X2544927Y-4119930D01*
X2543556Y-4120134D01*
X2541981Y-4120032D01*
X2540355Y-4119626D01*
X2539136Y-4119067D01*
X2539085Y-4118610D01*
X2501490Y-4118610D01*
X2501036Y-4119575D01*
X2496870Y-4123334D01*
X2494737Y-4126382D01*
X2492806Y-4130294D01*
X2491079Y-4134916D01*
X2489555Y-4140250D01*
X2488285Y-4146143D01*
X2487371Y-4152544D01*
X2486710Y-4159250D01*
X2486558Y-4165600D01*
X2486964Y-4170730D01*
X2488082Y-4174744D01*
X2490012Y-4177690D01*
X2492857Y-4179722D01*
X2496667Y-4180941D01*
X2501544Y-4181398D01*
X2507640Y-4181246D01*
X2516835Y-4179620D01*
X2523693Y-4175963D01*
X2528417Y-4170324D01*
X2531110Y-4162450D01*
X2532329Y-4157218D01*
X2534056Y-4154373D01*
X2537206Y-4153154D01*
X2542540Y-4152900D01*
X2547467Y-4153204D01*
X2551023Y-4154271D01*
X2553766Y-4156405D01*
X2558592Y-4163364D01*
X2561793Y-4165549D01*
X2566873Y-4166768D01*
X2574848Y-4167378D01*
X2582926Y-4167581D01*
X2588260Y-4166920D01*
X2592120Y-4165092D01*
X2598877Y-4158894D01*
X2602382Y-4156913D01*
X2606344Y-4155744D01*
X2610967Y-4155389D01*
X2620416Y-4155389D01*
X2618943Y-4166514D01*
X2618841Y-4174947D01*
X2621686Y-4180586D01*
X2628188Y-4184091D01*
X2639161Y-4186275D01*
X2645664Y-4186885D01*
X2650490Y-4186529D01*
X2654604Y-4185056D01*
X2658922Y-4182262D01*
X2662936Y-4178604D01*
X2665476Y-4174083D01*
X2667050Y-4167073D01*
X2668270Y-4156151D01*
X2668930Y-4145838D01*
X2668778Y-4138625D01*
X2667711Y-4133596D01*
X2665628Y-4129786D01*
X2663342Y-4126484D01*
X2662732Y-4123994D01*
X2663799Y-4121505D01*
X2666644Y-4118203D01*
X2670454Y-4113174D01*
X2671876Y-4108500D01*
X2671013Y-4103827D01*
X2667863Y-4098798D01*
X2665730Y-4095851D01*
X2665222Y-4093718D01*
X2666390Y-4091686D01*
X2669336Y-4089146D01*
X2673045Y-4085132D01*
X2674772Y-4080662D01*
X2674467Y-4075684D01*
X2671013Y-4067860D01*
X2671267Y-4065422D01*
X2673045Y-4062729D01*
X2680360Y-4055567D01*
X2682595Y-4051147D01*
X2683560Y-4044696D01*
X2683814Y-4034688D01*
X2683560Y-4026154D01*
X2682849Y-4019854D01*
X2681528Y-4015587D01*
X2679700Y-4013200D01*
X2677261Y-4011929D01*
X2673654Y-4010710D01*
X2669336Y-4009593D01*
X2664866Y-4008780D01*
G37*
G36*
X2518613Y-4251706D02*
G01*
X2510942Y-4251960D01*
X2504541Y-4252722D01*
X2500020Y-4254093D01*
X2496667Y-4255465D01*
X2492959Y-4256633D01*
X2489301Y-4257395D01*
X2486202Y-4257700D01*
X2479141Y-4259224D01*
X2473502Y-4263491D01*
X2469489Y-4270349D01*
X2467152Y-4279646D01*
X2466857Y-4284116D01*
X2515209Y-4284116D01*
X2515616Y-4283760D01*
X2521915Y-4283405D01*
X2526030Y-4283456D01*
X2528671Y-4283710D01*
X2529586Y-4284065D01*
X2528519Y-4284522D01*
X2522982Y-4284980D01*
X2519832Y-4284878D01*
X2516835Y-4284522D01*
X2515209Y-4284116D01*
X2466857Y-4284116D01*
X2466692Y-4286605D01*
X2585313Y-4286605D01*
X2586024Y-4286300D01*
X2593390Y-4285945D01*
X2600706Y-4286300D01*
X2601468Y-4286605D01*
X2599944Y-4287062D01*
X2593390Y-4287469D01*
X2586837Y-4287062D01*
X2585313Y-4286605D01*
X2466692Y-4286605D01*
X2466390Y-4291177D01*
X2467762Y-4299610D01*
X2471267Y-4305046D01*
X2476906Y-4307332D01*
X2480106Y-4308043D01*
X2483612Y-4309313D01*
X2487015Y-4310938D01*
X2489809Y-4312767D01*
X2494026Y-4314901D01*
X2500325Y-4316628D01*
X2508046Y-4317847D01*
X2516632Y-4318558D01*
X2525369Y-4318711D01*
X2533751Y-4318304D01*
X2541117Y-4317339D01*
X2546858Y-4315714D01*
X2551633Y-4313885D01*
X2554782Y-4313326D01*
X2557068Y-4313986D01*
X2559202Y-4315968D01*
X2562961Y-4318101D01*
X2569413Y-4319778D01*
X2577795Y-4321048D01*
X2587244Y-4321860D01*
X2596845Y-4322114D01*
X2605786Y-4321810D01*
X2613202Y-4320844D01*
X2618181Y-4319219D01*
X2621483Y-4317695D01*
X2625191Y-4316425D01*
X2628900Y-4315561D01*
X2636469Y-4314799D01*
X2640279Y-4313478D01*
X2643632Y-4311345D01*
X2646476Y-4308449D01*
X2648712Y-4304842D01*
X2650337Y-4300524D01*
X2651404Y-4295597D01*
X2651709Y-4290060D01*
X2651404Y-4284014D01*
X2650490Y-4278579D01*
X2649067Y-4274108D01*
X2647188Y-4270857D01*
X2645003Y-4268673D01*
X2642412Y-4266946D01*
X2639771Y-4265726D01*
X2634742Y-4264914D01*
X2631490Y-4263847D01*
X2628036Y-4262272D01*
X2624785Y-4260342D01*
X2620060Y-4257903D01*
X2614269Y-4255922D01*
X2607614Y-4254500D01*
X2600452Y-4253687D01*
X2593086Y-4253382D01*
X2585821Y-4253738D01*
X2578963Y-4254703D01*
X2572816Y-4256328D01*
X2566263Y-4258360D01*
X2561691Y-4259122D01*
X2558084Y-4258665D01*
X2549652Y-4255211D01*
X2543098Y-4253738D01*
X2535326Y-4252620D01*
X2526944Y-4251960D01*
G37*
G36*
X2473096Y-4395724D02*
G01*
X2463749Y-4396028D01*
X2456992Y-4396841D01*
X2454452Y-4397451D01*
X2452319Y-4398213D01*
X2450642Y-4399076D01*
X2449322Y-4400092D01*
X2447391Y-4402632D01*
X2446121Y-4405782D01*
X2442311Y-4419752D01*
X2440686Y-4428540D01*
X2440463Y-4432147D01*
X2488387Y-4432147D01*
X2490012Y-4430420D01*
X2491994Y-4429709D01*
X2495296Y-4429302D01*
X2499563Y-4429252D01*
X2504236Y-4429556D01*
X2510282Y-4430318D01*
X2513025Y-4431131D01*
X2512872Y-4432300D01*
X2510332Y-4434179D01*
X2507589Y-4435398D01*
X2504338Y-4436160D01*
X2500833Y-4436364D01*
X2497378Y-4436008D01*
X2491740Y-4434687D01*
X2488844Y-4433468D01*
X2488387Y-4432147D01*
X2440463Y-4432147D01*
X2440273Y-4436414D01*
X2561285Y-4436414D01*
X2561945Y-4434687D01*
X2563977Y-4433519D01*
X2567584Y-4432858D01*
X2572969Y-4432655D01*
X2578354Y-4432858D01*
X2581960Y-4433519D01*
X2583992Y-4434687D01*
X2584653Y-4436414D01*
X2583992Y-4438142D01*
X2581960Y-4439259D01*
X2578354Y-4439920D01*
X2572969Y-4440123D01*
X2567584Y-4439920D01*
X2563977Y-4439259D01*
X2561945Y-4438142D01*
X2561285Y-4436414D01*
X2440273Y-4436414D01*
X2440838Y-4442206D01*
X2442616Y-4447235D01*
X2445512Y-4451248D01*
X2449626Y-4454296D01*
X2463190Y-4459376D01*
X2470861Y-4462983D01*
X2475331Y-4464710D01*
X2481935Y-4466234D01*
X2490012Y-4467453D01*
X2498902Y-4468215D01*
X2509570Y-4468622D01*
X2516987Y-4468317D01*
X2522270Y-4467098D01*
X2526639Y-4464913D01*
X2530652Y-4462475D01*
X2533446Y-4461713D01*
X2536088Y-4462627D01*
X2539644Y-4465320D01*
X2542438Y-4466945D01*
X2546400Y-4468418D01*
X2551226Y-4469688D01*
X2556764Y-4470704D01*
X2562758Y-4471517D01*
X2569057Y-4472076D01*
X2581706Y-4472381D01*
X2587548Y-4472076D01*
X2592882Y-4471517D01*
X2597454Y-4470603D01*
X2604922Y-4467758D01*
X2613660Y-4464862D01*
X2621686Y-4462830D01*
X2625394Y-4460900D01*
X2628493Y-4458157D01*
X2631033Y-4454550D01*
X2633065Y-4450029D01*
X2634640Y-4444492D01*
X2635808Y-4437938D01*
X2636520Y-4430217D01*
X2637078Y-4419295D01*
X2636672Y-4412996D01*
X2634742Y-4409440D01*
X2630932Y-4406798D01*
X2628544Y-4405833D01*
X2625090Y-4404868D01*
X2620416Y-4404004D01*
X2607106Y-4402429D01*
X2587904Y-4401007D01*
X2533294Y-4397959D01*
X2493060Y-4396079D01*
G37*
G36*
X2456891Y-4482236D02*
G01*
X2451150Y-4482439D01*
X2445766Y-4483404D01*
X2441041Y-4485081D01*
X2437384Y-4487519D01*
X2434894Y-4491126D01*
X2432862Y-4496409D01*
X2431389Y-4502708D01*
X2430475Y-4509465D01*
X2430221Y-4516170D01*
X2430678Y-4522114D01*
X2431846Y-4526838D01*
X2433777Y-4529632D01*
X2441549Y-4533188D01*
X2450795Y-4534509D01*
X2460091Y-4533595D01*
X2468067Y-4530344D01*
X2471013Y-4528616D01*
X2473807Y-4527346D01*
X2477262Y-4526483D01*
X2481884Y-4526076D01*
X2488387Y-4526026D01*
X2509570Y-4526889D01*
X2540609Y-4528718D01*
X2561336Y-4530293D01*
X2568041Y-4531156D01*
X2572918Y-4532122D01*
X2576525Y-4533290D01*
X2579319Y-4534763D01*
X2585923Y-4539335D01*
X2590342Y-4541164D01*
X2595270Y-4542231D01*
X2601010Y-4542536D01*
X2610764Y-4541723D01*
X2617724Y-4538980D01*
X2622448Y-4533950D01*
X2625547Y-4526229D01*
X2627833Y-4515612D01*
X2627934Y-4507636D01*
X2625801Y-4501438D01*
X2621229Y-4496206D01*
X2617622Y-4493717D01*
X2613558Y-4491888D01*
X2609189Y-4490669D01*
X2604617Y-4490161D01*
X2599944Y-4490364D01*
X2595372Y-4491177D01*
X2591003Y-4492701D01*
X2584500Y-4496460D01*
X2581859Y-4497578D01*
X2578455Y-4498340D01*
X2573731Y-4498746D01*
X2567127Y-4498797D01*
X2546045Y-4498035D01*
X2514803Y-4496409D01*
X2493822Y-4494936D01*
X2487371Y-4494174D01*
X2482900Y-4493209D01*
X2479802Y-4492040D01*
X2477617Y-4490516D01*
X2475738Y-4488637D01*
X2472385Y-4485944D01*
X2467864Y-4484014D01*
X2462580Y-4482744D01*
G37*
G36*
X2594660Y-4562348D02*
G01*
X2587396Y-4563160D01*
X2580690Y-4565091D01*
X2575153Y-4568088D01*
X2571445Y-4571949D01*
X2569819Y-4577791D01*
X2568854Y-4578654D01*
X2566822Y-4579315D01*
X2563469Y-4579670D01*
X2551379Y-4579620D01*
X2513787Y-4577994D01*
X2488539Y-4576622D01*
X2473858Y-4575403D01*
X2455722Y-4574743D01*
X2439365Y-4575251D01*
X2432964Y-4575860D01*
X2428240Y-4576724D01*
X2425700Y-4577842D01*
X2421686Y-4582718D01*
X2419959Y-4587748D01*
X2420569Y-4592777D01*
X2423515Y-4597400D01*
X2425547Y-4599432D01*
X2427681Y-4600956D01*
X2430526Y-4602175D01*
X2434793Y-4603089D01*
X2441092Y-4603902D01*
X2462123Y-4605528D01*
X2521610Y-4609033D01*
X2561742Y-4609998D01*
X2566314Y-4619904D01*
X2570073Y-4626457D01*
X2574848Y-4630318D01*
X2582164Y-4632350D01*
X2593594Y-4633163D01*
X2598928Y-4632960D01*
X2603550Y-4632096D01*
X2607513Y-4630521D01*
X2610815Y-4628286D01*
X2613406Y-4625340D01*
X2615234Y-4621733D01*
X2616352Y-4617466D01*
X2617825Y-4594758D01*
X2619298Y-4580128D01*
X2619044Y-4574844D01*
X2617419Y-4571136D01*
X2614168Y-4567834D01*
X2608681Y-4564583D01*
X2601976Y-4562805D01*
G37*
G36*
X2418537Y-4720742D02*
G01*
X2412796Y-4721250D01*
X2408631Y-4722368D01*
X2405481Y-4724196D01*
X2402992Y-4726838D01*
X2400655Y-4730242D01*
X2399131Y-4735271D01*
X2399690Y-4740808D01*
X2402027Y-4745634D01*
X2405735Y-4748428D01*
X2410256Y-4749190D01*
X2431491Y-4751324D01*
X2476804Y-4754829D01*
X2486456Y-4755794D01*
X2492908Y-4756810D01*
X2496870Y-4758029D01*
X2498801Y-4759553D01*
X2499461Y-4761484D01*
X2499360Y-4763973D01*
X2498699Y-4767580D01*
X2496769Y-4769307D01*
X2492298Y-4769662D01*
X2470150Y-4767884D01*
X2423668Y-4765294D01*
X2414371Y-4765090D01*
X2407462Y-4765344D01*
X2402484Y-4766208D01*
X2399030Y-4767732D01*
X2396642Y-4770069D01*
X2394966Y-4773422D01*
X2393543Y-4777790D01*
X2392934Y-4781092D01*
X2393340Y-4783988D01*
X2394762Y-4786680D01*
X2398166Y-4789982D01*
X2399944Y-4791252D01*
X2402433Y-4792319D01*
X2406345Y-4793284D01*
X2421178Y-4795215D01*
X2450134Y-4797653D01*
X2553309Y-4805222D01*
X2568905Y-4806086D01*
X2578608Y-4806188D01*
X2581859Y-4805984D01*
X2584348Y-4805578D01*
X2588006Y-4804308D01*
X2589682Y-4803444D01*
X2592730Y-4801260D01*
X2594762Y-4798618D01*
X2595930Y-4795367D01*
X2596286Y-4791354D01*
X2595473Y-4785309D01*
X2592628Y-4780838D01*
X2587548Y-4777536D01*
X2579725Y-4775098D01*
X2572816Y-4772101D01*
X2571140Y-4768240D01*
X2574493Y-4764582D01*
X2582570Y-4762144D01*
X2590495Y-4760671D01*
X2595473Y-4758537D01*
X2598572Y-4755134D01*
X2600655Y-4749698D01*
X2601163Y-4746548D01*
X2600756Y-4743551D01*
X2599436Y-4740656D01*
X2597200Y-4737862D01*
X2595524Y-4736490D01*
X2593136Y-4735220D01*
X2590038Y-4734052D01*
X2586075Y-4732985D01*
X2575255Y-4731054D01*
X2559964Y-4729378D01*
X2539542Y-4727752D01*
X2426258Y-4720742D01*
G37*
G36*
X2404821Y-4809845D02*
G01*
X2400096Y-4810048D01*
X2396794Y-4810658D01*
X2394508Y-4811623D01*
X2392781Y-4813046D01*
X2391105Y-4814976D01*
X2387549Y-4820564D01*
X2386533Y-4825542D01*
X2388057Y-4830216D01*
X2392121Y-4834788D01*
X2395829Y-4837277D01*
X2400604Y-4838801D01*
X2407412Y-4839563D01*
X2417114Y-4839817D01*
X2436215Y-4839817D01*
X2435732Y-4844084D01*
X2482545Y-4844084D01*
X2504897Y-4846269D01*
X2520442Y-4847132D01*
X2540863Y-4847285D01*
X2540863Y-4855972D01*
X2540660Y-4860696D01*
X2539644Y-4863134D01*
X2537256Y-4863896D01*
X2517292Y-4861864D01*
X2491841Y-4860036D01*
X2487625Y-4859883D01*
X2485288Y-4859426D01*
X2483662Y-4858054D01*
X2482799Y-4855616D01*
X2482545Y-4851958D01*
X2482545Y-4844084D01*
X2435732Y-4844084D01*
X2435301Y-4847894D01*
X2434691Y-4850993D01*
X2433675Y-4853482D01*
X2432405Y-4855057D01*
X2431034Y-4855464D01*
X2423312Y-4854956D01*
X2409444Y-4854498D01*
X2399639Y-4854397D01*
X2393340Y-4855108D01*
X2389124Y-4856784D01*
X2385669Y-4859832D01*
X2381910Y-4865725D01*
X2381300Y-4871872D01*
X2383739Y-4877612D01*
X2389174Y-4882438D01*
X2391562Y-4883607D01*
X2394559Y-4884674D01*
X2398369Y-4885537D01*
X2403144Y-4886299D01*
X2416454Y-4887518D01*
X2451252Y-4889246D01*
X2473045Y-4890566D01*
X2485898Y-4891989D01*
X2527757Y-4894834D01*
X2545283Y-4896561D01*
X2548839Y-4896053D01*
X2552090Y-4894681D01*
X2558338Y-4890363D01*
X2562098Y-4888738D01*
X2566111Y-4887620D01*
X2570073Y-4887264D01*
X2578709Y-4885842D01*
X2585110Y-4881727D01*
X2589072Y-4875123D01*
X2590495Y-4866233D01*
X2590800Y-4857445D01*
X2591917Y-4850180D01*
X2591968Y-4848047D01*
X2591257Y-4843526D01*
X2589276Y-4838700D01*
X2586380Y-4835296D01*
X2582062Y-4832959D01*
X2572207Y-4830419D01*
X2567940Y-4828590D01*
X2563774Y-4826254D01*
X2556002Y-4820564D01*
X2551430Y-4818583D01*
X2545892Y-4817465D01*
X2522372Y-4816297D01*
X2504998Y-4814874D01*
X2476042Y-4812944D01*
X2420670Y-4810201D01*
G37*
G36*
X2396032Y-4900523D02*
G01*
X2390089Y-4900574D01*
X2385771Y-4900980D01*
X2382926Y-4901692D01*
X2381351Y-4902708D01*
X2377744Y-4908194D01*
X2376271Y-4914087D01*
X2376932Y-4919827D01*
X2379827Y-4924704D01*
X2381605Y-4926330D01*
X2383739Y-4927650D01*
X2386533Y-4928768D01*
X2390292Y-4929682D01*
X2395270Y-4930495D01*
X2410104Y-4932019D01*
X2434234Y-4934051D01*
X2445207Y-4935321D01*
X2452370Y-4936540D01*
X2454605Y-4937556D01*
X2453182Y-4938268D01*
X2450490Y-4938826D01*
X2446782Y-4939182D01*
X2437384Y-4939334D01*
X2433218Y-4940198D01*
X2429764Y-4941925D01*
X2423210Y-4947564D01*
X2418892Y-4949088D01*
X2411730Y-4949291D01*
X2387396Y-4947818D01*
X2380234Y-4948123D01*
X2375916Y-4949901D01*
X2372004Y-4953660D01*
X2370609Y-4955387D01*
X2498242Y-4955387D01*
X2499207Y-4955082D01*
X2503271Y-4954930D01*
X2504694Y-4955184D01*
X2505354Y-4955641D01*
X2505100Y-4956200D01*
X2504084Y-4956657D01*
X2502712Y-4956860D01*
X2501138Y-4956810D01*
X2499512Y-4956403D01*
X2498293Y-4955844D01*
X2498242Y-4955387D01*
X2370609Y-4955387D01*
X2368804Y-4957622D01*
X2366670Y-4961280D01*
X2365552Y-4964684D01*
X2365502Y-4967833D01*
X2366518Y-4970678D01*
X2368499Y-4973269D01*
X2371547Y-4975555D01*
X2375611Y-4977536D01*
X2380640Y-4979263D01*
X2386736Y-4980635D01*
X2393797Y-4981752D01*
X2524658Y-4991354D01*
X2559608Y-4994097D01*
X2565095Y-4993741D01*
X2569108Y-4992420D01*
X2572766Y-4989830D01*
X2577388Y-4983784D01*
X2578709Y-4977079D01*
X2576728Y-4970576D01*
X2571546Y-4965141D01*
X2566720Y-4962753D01*
X2559761Y-4960924D01*
X2549804Y-4959553D01*
X2522575Y-4957470D01*
X2514803Y-4956505D01*
X2511958Y-4955387D01*
X2513380Y-4954066D01*
X2518918Y-4951120D01*
X2524302Y-4947564D01*
X2527909Y-4945735D01*
X2533294Y-4944618D01*
X2541117Y-4944211D01*
X2566416Y-4944465D01*
X2571292Y-4944008D01*
X2575001Y-4943094D01*
X2577744Y-4941671D01*
X2579776Y-4939639D01*
X2581300Y-4936947D01*
X2582621Y-4933442D01*
X2583027Y-4931105D01*
X2582976Y-4928311D01*
X2582519Y-4925517D01*
X2581656Y-4923028D01*
X2580132Y-4920284D01*
X2578049Y-4918049D01*
X2575306Y-4916271D01*
X2571597Y-4914798D01*
X2566670Y-4913579D01*
X2560269Y-4912614D01*
X2542336Y-4910937D01*
X2403957Y-4900726D01*
G37*
G36*
X2408275Y-4998008D02*
G01*
X2403043Y-4998262D01*
X2398674Y-4999583D01*
X2390851Y-5004054D01*
X2386888Y-5005628D01*
X2382977Y-5006746D01*
X2379573Y-5007152D01*
X2371394Y-5008575D01*
X2364740Y-5012690D01*
X2359863Y-5019395D01*
X2356916Y-5028539D01*
X2355291Y-5038191D01*
X2354529Y-5046218D01*
X2354681Y-5052720D01*
X2355799Y-5057902D01*
X2357932Y-5061915D01*
X2361184Y-5064963D01*
X2365552Y-5067147D01*
X2374646Y-5069738D01*
X2378405Y-5071516D01*
X2381961Y-5073700D01*
X2388768Y-5079187D01*
X2394356Y-5081219D01*
X2403246Y-5082540D01*
X2417419Y-5083606D01*
X2432151Y-5084368D01*
X2441194Y-5084165D01*
X2447036Y-5082794D01*
X2455773Y-5077866D01*
X2459990Y-5076139D01*
X2464206Y-5075021D01*
X2467914Y-5074564D01*
X2475484Y-5073142D01*
X2481427Y-5068824D01*
X2485491Y-5061813D01*
X2487726Y-5052110D01*
X2488692Y-5045049D01*
X2490165Y-5041341D01*
X2493060Y-5039868D01*
X2498242Y-5039664D01*
X2508758Y-5040172D01*
X2515616Y-5041849D01*
X2519324Y-5044846D01*
X2520442Y-5049469D01*
X2520188Y-5053025D01*
X2519070Y-5054955D01*
X2516530Y-5055514D01*
X2512009Y-5055158D01*
X2505506Y-5055311D01*
X2500071Y-5057292D01*
X2495804Y-5060645D01*
X2492908Y-5065115D01*
X2491587Y-5070246D01*
X2491943Y-5075682D01*
X2494178Y-5081016D01*
X2498445Y-5085943D01*
X2502560Y-5088636D01*
X2507488Y-5090617D01*
X2512923Y-5091887D01*
X2518562Y-5092395D01*
X2523998Y-5092242D01*
X2528874Y-5091277D01*
X2532888Y-5089550D01*
X2537968Y-5084826D01*
X2541016Y-5083251D01*
X2544927Y-5082387D01*
X2555341Y-5081778D01*
X2559812Y-5080762D01*
X2563418Y-5078933D01*
X2566263Y-5076139D01*
X2568498Y-5072227D01*
X2570124Y-5067096D01*
X2571343Y-5060543D01*
X2572156Y-5052517D01*
X2572918Y-5041239D01*
X2572461Y-5034483D01*
X2570378Y-5030165D01*
X2566212Y-5026101D01*
X2562809Y-5023612D01*
X2559151Y-5021529D01*
X2555697Y-5020157D01*
X2550261Y-5019192D01*
X2547467Y-5018074D01*
X2544826Y-5016398D01*
X2542692Y-5014315D01*
X2539796Y-5011978D01*
X2535326Y-5009896D01*
X2529636Y-5008118D01*
X2522982Y-5006695D01*
X2515717Y-5005578D01*
X2508097Y-5004816D01*
X2500477Y-5004460D01*
X2493111Y-5004511D01*
X2486355Y-5005019D01*
X2480513Y-5005933D01*
X2475839Y-5007356D01*
X2472690Y-5009286D01*
X2470150Y-5011166D01*
X2467254Y-5012385D01*
X2464104Y-5012944D01*
X2456738Y-5012639D01*
X2452827Y-5013553D01*
X2449220Y-5015484D01*
X2445918Y-5018227D01*
X2443022Y-5021834D01*
X2440533Y-5026152D01*
X2438654Y-5031130D01*
X2435656Y-5044795D01*
X2432608Y-5048758D01*
X2426563Y-5049520D01*
X2415794Y-5048046D01*
X2411171Y-5046980D01*
X2408377Y-5045456D01*
X2407056Y-5043017D01*
X2406700Y-5039309D01*
X2407005Y-5035448D01*
X2408326Y-5033264D01*
X2411323Y-5032349D01*
X2416759Y-5032095D01*
X2424582Y-5030876D01*
X2430627Y-5027269D01*
X2434488Y-5021732D01*
X2435860Y-5014569D01*
X2434742Y-5008219D01*
X2431084Y-5003596D01*
X2424684Y-5000447D01*
X2415235Y-4998567D01*
G37*
G36*
X2367330Y-5095392D02*
G01*
X2364079Y-5095544D01*
X2359406Y-5096408D01*
X2356053Y-5097881D01*
X2350516Y-5102504D01*
X2347315Y-5108549D01*
X2346604Y-5115407D01*
X2348534Y-5122468D01*
X2349957Y-5125110D01*
X2351532Y-5127142D01*
X2353767Y-5128717D01*
X2357170Y-5129936D01*
X2362149Y-5130952D01*
X2369261Y-5131917D01*
X2401316Y-5134914D01*
X2409037Y-5135880D01*
X2414930Y-5136946D01*
X2419146Y-5138216D01*
X2421890Y-5139690D01*
X2423363Y-5141468D01*
X2423668Y-5143652D01*
X2423007Y-5146294D01*
X2421483Y-5148834D01*
X2418232Y-5150002D01*
X2411628Y-5150053D01*
X2374849Y-5147005D01*
X2366010Y-5146649D01*
X2359253Y-5146700D01*
X2354122Y-5147259D01*
X2350262Y-5148275D01*
X2347366Y-5149799D01*
X2344978Y-5151882D01*
X2340864Y-5158536D01*
X2339695Y-5165902D01*
X2341473Y-5172964D01*
X2346147Y-5178653D01*
X2347671Y-5179568D01*
X2352395Y-5181346D01*
X2359507Y-5183022D01*
X2368854Y-5184648D01*
X2380437Y-5186222D01*
X2394102Y-5187696D01*
X2409901Y-5189067D01*
X2464866Y-5192826D01*
X2535885Y-5198364D01*
X2540457Y-5198110D01*
X2544673Y-5197500D01*
X2548128Y-5196535D01*
X2551836Y-5194401D01*
X2554782Y-5191404D01*
X2556865Y-5187746D01*
X2558084Y-5183632D01*
X2558338Y-5179314D01*
X2557678Y-5175046D01*
X2556002Y-5170932D01*
X2553258Y-5167274D01*
X2551531Y-5165750D01*
X2549347Y-5164480D01*
X2546451Y-5163362D01*
X2542590Y-5162448D01*
X2537510Y-5161584D01*
X2522728Y-5159908D01*
X2476703Y-5155996D01*
X2476703Y-5141315D01*
X2541320Y-5146598D01*
X2546959Y-5146243D01*
X2551531Y-5144820D01*
X2556205Y-5142077D01*
X2561996Y-5136032D01*
X2564333Y-5128615D01*
X2563164Y-5121097D01*
X2558389Y-5114544D01*
X2555290Y-5112512D01*
X2551328Y-5110886D01*
X2546858Y-5109718D01*
X2531618Y-5108651D01*
X2514549Y-5106924D01*
X2390597Y-5096459D01*
X2376576Y-5095595D01*
G37*
G36*
X2353970Y-5197957D02*
G01*
X2346858Y-5198364D01*
X2342286Y-5199583D01*
X2339086Y-5202275D01*
X2336038Y-5207050D01*
X2334514Y-5210403D01*
X2332990Y-5214924D01*
X2331516Y-5220462D01*
X2328926Y-5233466D01*
X2326894Y-5247589D01*
X2325725Y-5260898D01*
X2325573Y-5266690D01*
X2325725Y-5271617D01*
X2326233Y-5275376D01*
X2327452Y-5279237D01*
X2329332Y-5282641D01*
X2331669Y-5285333D01*
X2334310Y-5287162D01*
X2342083Y-5288737D01*
X2352598Y-5288686D01*
X2362860Y-5287264D01*
X2369921Y-5284622D01*
X2371801Y-5281828D01*
X2373934Y-5276342D01*
X2375966Y-5268976D01*
X2379065Y-5252923D01*
X2380386Y-5247233D01*
X2381910Y-5243220D01*
X2383993Y-5240731D01*
X2386888Y-5239461D01*
X2390851Y-5239258D01*
X2396286Y-5239816D01*
X2403398Y-5240985D01*
X2407869Y-5242052D01*
X2410663Y-5243474D01*
X2412136Y-5245608D01*
X2412898Y-5251551D01*
X2413863Y-5255056D01*
X2415235Y-5258714D01*
X2416962Y-5262067D01*
X2419502Y-5265572D01*
X2422296Y-5267807D01*
X2425649Y-5269026D01*
X2437079Y-5269839D01*
X2440228Y-5270246D01*
X2442514Y-5270804D01*
X2448712Y-5269890D01*
X2456129Y-5265318D01*
X2462428Y-5259019D01*
X2465019Y-5252974D01*
X2465374Y-5249824D01*
X2466746Y-5248046D01*
X2469642Y-5247182D01*
X2474518Y-5246979D01*
X2481783Y-5247081D01*
X2487320Y-5247487D01*
X2491282Y-5248503D01*
X2494026Y-5250332D01*
X2495753Y-5253228D01*
X2496667Y-5257495D01*
X2497074Y-5263337D01*
X2497328Y-5282539D01*
X2498293Y-5289702D01*
X2500426Y-5294325D01*
X2504287Y-5298236D01*
X2508351Y-5301183D01*
X2512720Y-5303062D01*
X2517902Y-5304078D01*
X2524506Y-5304383D01*
X2530703Y-5304028D01*
X2535885Y-5302961D01*
X2540152Y-5300980D01*
X2543556Y-5298033D01*
X2546248Y-5293918D01*
X2548280Y-5288584D01*
X2549855Y-5281930D01*
X2550972Y-5273751D01*
X2553258Y-5250840D01*
X2554173Y-5237073D01*
X2554173Y-5232603D01*
X2553868Y-5229250D01*
X2553208Y-5226558D01*
X2552293Y-5224170D01*
X2548585Y-5219090D01*
X2542641Y-5215229D01*
X2534818Y-5212791D01*
X2514193Y-5211318D01*
X2487320Y-5208930D01*
X2419400Y-5202377D01*
X2391714Y-5200040D01*
X2370328Y-5198516D01*
G37*
G36*
X2339035Y-5300065D02*
G01*
X2335479Y-5300268D01*
X2332278Y-5301183D01*
X2329332Y-5302808D01*
X2326640Y-5305145D01*
X2324252Y-5308346D01*
X2322118Y-5312257D01*
X2320188Y-5317032D01*
X2318512Y-5322620D01*
X2316988Y-5329123D01*
X2315718Y-5336489D01*
X2314600Y-5344769D01*
X2314050Y-5351526D01*
X2366213Y-5351526D01*
X2368448Y-5347208D01*
X2369566Y-5346293D01*
X2371496Y-5345633D01*
X2374595Y-5345277D01*
X2385314Y-5345430D01*
X2404110Y-5346750D01*
X2459837Y-5351627D01*
X2475738Y-5353354D01*
X2480767Y-5354116D01*
X2484272Y-5354878D01*
X2486507Y-5355742D01*
X2487726Y-5356707D01*
X2488285Y-5357825D01*
X2488387Y-5360720D01*
X2488082Y-5363413D01*
X2487117Y-5365343D01*
X2485542Y-5366461D01*
X2483256Y-5366816D01*
X2468829Y-5365800D01*
X2407666Y-5360416D01*
X2381148Y-5357876D01*
X2372156Y-5356504D01*
X2367280Y-5354472D01*
X2366213Y-5351526D01*
X2314050Y-5351526D01*
X2313889Y-5353507D01*
X2313990Y-5361076D01*
X2314905Y-5367477D01*
X2316632Y-5372658D01*
X2319223Y-5376672D01*
X2322626Y-5379516D01*
X2326894Y-5381244D01*
X2331974Y-5381802D01*
X2335072Y-5382361D01*
X2338425Y-5383834D01*
X2341727Y-5386120D01*
X2348738Y-5392928D01*
X2353462Y-5395366D01*
X2360726Y-5396839D01*
X2409037Y-5401157D01*
X2461412Y-5406186D01*
X2483408Y-5408015D01*
X2489809Y-5408269D01*
X2494076Y-5408066D01*
X2496820Y-5407355D01*
X2498699Y-5406186D01*
X2500376Y-5404561D01*
X2503220Y-5402376D01*
X2507081Y-5400700D01*
X2511958Y-5399481D01*
X2523794Y-5398109D01*
X2528773Y-5396534D01*
X2532735Y-5393944D01*
X2535834Y-5390032D01*
X2538222Y-5384596D01*
X2540050Y-5377434D01*
X2541422Y-5368239D01*
X2542489Y-5356809D01*
X2543403Y-5342585D01*
X2543251Y-5333898D01*
X2541828Y-5328666D01*
X2538882Y-5324703D01*
X2536037Y-5322366D01*
X2532430Y-5320334D01*
X2528468Y-5318760D01*
X2522880Y-5317794D01*
X2357120Y-5302504D01*
G37*
G36*
X2852674Y-2984500D02*
G01*
X2844038Y-2986024D01*
X2837942Y-2990443D01*
X2834335Y-2997454D01*
X2833116Y-3006852D01*
X2833116Y-3018790D01*
X2823718Y-3019298D01*
X2823718Y-3027426D01*
X2833116Y-3027426D01*
X2833116Y-3087370D01*
X2843530Y-3087370D01*
X2843530Y-3027426D01*
X2858262Y-3027426D01*
X2858262Y-3018790D01*
X2843530Y-3018790D01*
X2843530Y-3007106D01*
X2844088Y-3000908D01*
X2845917Y-2996488D01*
X2849016Y-2993796D01*
X2853436Y-2992882D01*
X2857296Y-2993440D01*
X2861310Y-2994914D01*
X2863596Y-2987040D01*
X2861056Y-2986024D01*
X2858312Y-2985211D01*
X2855518Y-2984703D01*
G37*
G36*
X2506218Y-2992882D02*
G01*
X2501950Y-2993186D01*
X2497988Y-2994202D01*
X2494330Y-2995828D01*
X2490978Y-2998114D01*
X2487980Y-3001060D01*
X2485288Y-3004667D01*
X2483002Y-3008934D01*
X2481072Y-3013913D01*
X2479548Y-3019552D01*
X2478430Y-3025902D01*
X2477770Y-3032912D01*
X2477516Y-3040634D01*
X2487676Y-3040634D01*
X2488031Y-3031134D01*
X2488996Y-3023006D01*
X2490571Y-3016250D01*
X2492756Y-3010763D01*
X2495448Y-3006547D01*
X2498598Y-3003600D01*
X2502204Y-3001822D01*
X2506218Y-3001264D01*
X2510129Y-3001822D01*
X2513685Y-3003600D01*
X2516784Y-3006547D01*
X2519476Y-3010763D01*
X2521610Y-3016250D01*
X2523185Y-3023006D01*
X2524150Y-3031134D01*
X2524506Y-3040634D01*
X2524150Y-3050235D01*
X2523185Y-3058464D01*
X2521610Y-3065373D01*
X2519476Y-3070961D01*
X2516784Y-3075279D01*
X2513685Y-3078327D01*
X2510129Y-3080156D01*
X2506218Y-3080766D01*
X2502204Y-3080156D01*
X2498598Y-3078378D01*
X2495448Y-3075279D01*
X2492756Y-3070961D01*
X2490571Y-3065373D01*
X2488996Y-3058464D01*
X2488031Y-3050235D01*
X2487676Y-3040634D01*
X2477516Y-3040634D01*
X2477770Y-3048355D01*
X2478430Y-3055416D01*
X2479548Y-3061817D01*
X2481072Y-3067558D01*
X2483002Y-3072587D01*
X2485288Y-3077006D01*
X2487980Y-3080715D01*
X2490978Y-3083763D01*
X2494330Y-3086100D01*
X2497988Y-3087776D01*
X2501950Y-3088792D01*
X2506218Y-3089148D01*
X2510383Y-3088792D01*
X2514295Y-3087776D01*
X2517902Y-3086100D01*
X2521204Y-3083763D01*
X2524150Y-3080715D01*
X2526792Y-3077006D01*
X2529078Y-3072587D01*
X2530957Y-3067558D01*
X2532430Y-3061817D01*
X2533548Y-3055416D01*
X2534208Y-3048355D01*
X2534412Y-3040634D01*
X2534208Y-3032912D01*
X2533548Y-3025902D01*
X2532430Y-3019552D01*
X2530957Y-3013913D01*
X2529078Y-3008934D01*
X2526792Y-3004667D01*
X2524150Y-3001060D01*
X2521204Y-2998114D01*
X2517902Y-2995828D01*
X2514295Y-2994202D01*
X2510383Y-2993186D01*
G37*
G36*
X2436114Y-2994406D02*
G01*
X2432253Y-2996387D01*
X2427884Y-2998063D01*
X2422906Y-2999536D01*
X2417318Y-3000756D01*
X2417318Y-3007614D01*
X2433574Y-3007614D01*
X2433574Y-3078734D01*
X2413000Y-3078734D01*
X2413000Y-3087370D01*
X2462784Y-3087370D01*
X2462784Y-3078734D01*
X2443988Y-3078734D01*
X2443988Y-2994406D01*
G37*
G36*
X2582926Y-2994406D02*
G01*
X2544300Y-3053334D01*
X2554478Y-3053334D01*
X2576830Y-3019806D01*
X2584196Y-3006598D01*
X2584958Y-3006598D01*
X2584399Y-3014675D01*
X2584196Y-3023108D01*
X2584196Y-3053334D01*
X2544300Y-3053334D01*
X2543302Y-3054858D01*
X2543302Y-3061462D01*
X2584196Y-3061462D01*
X2584196Y-3087370D01*
X2593848Y-3087370D01*
X2593848Y-3061462D01*
X2606548Y-3061462D01*
X2606548Y-3053334D01*
X2593848Y-3053334D01*
X2593848Y-2994406D01*
G37*
G36*
X2707894Y-2994406D02*
G01*
X2704033Y-2996387D01*
X2699613Y-2998063D01*
X2694686Y-2999536D01*
X2689098Y-3000756D01*
X2689098Y-3007614D01*
X2705354Y-3007614D01*
X2705354Y-3078734D01*
X2684526Y-3078734D01*
X2684526Y-3087370D01*
X2734564Y-3087370D01*
X2734564Y-3078734D01*
X2715768Y-3078734D01*
X2715768Y-2994406D01*
G37*
G36*
X2754122Y-3018790D02*
G01*
X2754122Y-3062224D01*
X2754426Y-3068421D01*
X2755341Y-3073806D01*
X2756916Y-3078429D01*
X2759100Y-3082239D01*
X2761996Y-3085236D01*
X2765602Y-3087420D01*
X2769920Y-3088690D01*
X2774950Y-3089148D01*
X2781554Y-3088182D01*
X2787446Y-3085541D01*
X2792780Y-3081528D01*
X2797810Y-3076448D01*
X2798064Y-3076448D01*
X2799080Y-3087370D01*
X2807462Y-3087370D01*
X2807462Y-3018790D01*
X2797302Y-3018790D01*
X2797302Y-3068066D01*
X2792374Y-3073450D01*
X2787751Y-3077159D01*
X2783027Y-3079292D01*
X2777998Y-3080004D01*
X2771800Y-3078937D01*
X2767533Y-3075584D01*
X2765044Y-3069742D01*
X2764282Y-3061208D01*
X2764282Y-3018790D01*
G37*
G36*
X2656078Y-3072384D02*
G01*
X2653030Y-3072993D01*
X2650540Y-3074771D01*
X2648813Y-3077413D01*
X2648204Y-3080766D01*
X2648813Y-3084118D01*
X2650540Y-3086760D01*
X2653030Y-3088538D01*
X2656078Y-3089148D01*
X2659126Y-3088538D01*
X2661615Y-3086760D01*
X2663342Y-3084118D01*
X2663952Y-3080766D01*
X2663342Y-3077413D01*
X2661615Y-3074771D01*
X2659126Y-3072993D01*
G37*
G36*
X1527048Y-3200400D02*
G01*
X1527048Y-3215386D01*
X1568958Y-3215386D01*
X1596390Y-3238500D01*
X1527048Y-3278378D01*
X1527048Y-3294887D01*
X1607820Y-3247898D01*
X1657096Y-3288792D01*
X1657096Y-3272028D01*
X1590294Y-3215640D01*
X1590294Y-3215386D01*
X1657096Y-3215386D01*
X1657096Y-3200400D01*
G37*
G36*
X1527048Y-3314192D02*
G01*
X1527048Y-3327908D01*
X1603451Y-3327857D01*
X1623364Y-3327044D01*
X1638046Y-3326129D01*
X1638046Y-3327146D01*
X1611376Y-3341370D01*
X1527048Y-3390137D01*
X1527048Y-3405378D01*
X1657096Y-3405378D01*
X1657096Y-3391408D01*
X1581759Y-3391458D01*
X1571548Y-3391763D01*
X1546352Y-3393440D01*
X1546352Y-3392424D01*
X1573022Y-3378454D01*
X1657096Y-3329178D01*
X1657096Y-3314192D01*
G37*
G36*
X1527048Y-3424428D02*
G01*
X1527048Y-3439160D01*
X1568196Y-3452622D01*
X1568196Y-3456432D01*
X1579626Y-3456432D01*
X1622653Y-3469944D01*
X1644904Y-3476498D01*
X1644904Y-3477260D01*
X1622755Y-3483711D01*
X1579626Y-3497326D01*
X1579626Y-3456432D01*
X1568196Y-3456432D01*
X1568196Y-3501136D01*
X1527048Y-3514090D01*
X1527048Y-3529837D01*
X1657096Y-3485134D01*
X1657096Y-3468878D01*
G37*
G36*
X1589024Y-3540506D02*
G01*
X1581251Y-3540709D01*
X1574038Y-3541318D01*
X1567230Y-3542334D01*
X1560982Y-3543706D01*
X1555191Y-3545433D01*
X1549958Y-3547516D01*
X1545183Y-3549954D01*
X1540916Y-3552647D01*
X1537106Y-3555695D01*
X1533855Y-3558997D01*
X1531061Y-3562553D01*
X1528826Y-3566312D01*
X1527048Y-3570376D01*
X1525778Y-3574592D01*
X1525016Y-3579063D01*
X1524762Y-3583686D01*
X1536192Y-3583686D01*
X1536496Y-3579520D01*
X1537512Y-3575659D01*
X1539087Y-3572103D01*
X1541322Y-3568903D01*
X1544116Y-3566007D01*
X1547520Y-3563416D01*
X1551533Y-3561130D01*
X1556054Y-3559200D01*
X1561185Y-3557574D01*
X1566773Y-3556304D01*
X1572971Y-3555339D01*
X1579626Y-3554729D01*
X1587449Y-3561587D01*
X1592732Y-3568649D01*
X1595678Y-3575608D01*
X1596644Y-3582162D01*
X1596085Y-3587953D01*
X1594510Y-3592880D01*
X1591970Y-3597046D01*
X1588516Y-3600399D01*
X1584198Y-3602990D01*
X1579067Y-3604818D01*
X1573225Y-3605936D01*
X1566672Y-3606292D01*
X1560169Y-3605834D01*
X1554327Y-3604564D01*
X1549095Y-3602532D01*
X1544675Y-3599840D01*
X1541068Y-3596538D01*
X1538427Y-3592677D01*
X1536750Y-3588359D01*
X1536192Y-3583686D01*
X1524762Y-3583686D01*
X1525117Y-3588562D01*
X1526133Y-3593287D01*
X1527810Y-3597757D01*
X1530096Y-3601974D01*
X1532991Y-3605885D01*
X1536395Y-3609390D01*
X1540306Y-3612540D01*
X1544726Y-3615182D01*
X1549603Y-3617315D01*
X1554937Y-3618941D01*
X1560626Y-3619906D01*
X1566672Y-3620262D01*
X1573174Y-3619957D01*
X1579118Y-3619144D01*
X1584553Y-3617722D01*
X1589379Y-3615842D01*
X1593596Y-3613404D01*
X1597304Y-3610559D01*
X1600454Y-3607206D01*
X1602994Y-3603447D01*
X1605026Y-3599281D01*
X1606448Y-3594709D01*
X1607261Y-3589731D01*
X1607566Y-3584448D01*
X1606448Y-3576421D01*
X1603298Y-3568496D01*
X1598371Y-3560978D01*
X1591818Y-3554222D01*
X1601673Y-3554729D01*
X1610410Y-3555796D01*
X1618081Y-3557371D01*
X1624736Y-3559454D01*
X1630476Y-3561994D01*
X1635251Y-3564940D01*
X1639163Y-3568242D01*
X1642262Y-3571849D01*
X1644599Y-3575761D01*
X1646224Y-3579926D01*
X1647139Y-3584244D01*
X1647443Y-3588765D01*
X1646732Y-3594608D01*
X1644802Y-3600246D01*
X1641652Y-3605428D01*
X1637538Y-3609848D01*
X1646428Y-3617976D01*
X1651711Y-3612134D01*
X1655876Y-3605326D01*
X1658670Y-3597351D01*
X1659636Y-3588258D01*
X1659432Y-3583635D01*
X1658721Y-3579063D01*
X1657502Y-3574592D01*
X1655825Y-3570274D01*
X1653590Y-3566160D01*
X1650847Y-3562197D01*
X1647494Y-3558489D01*
X1643583Y-3555034D01*
X1639062Y-3551885D01*
X1633931Y-3549040D01*
X1628139Y-3546551D01*
X1621688Y-3544468D01*
X1614576Y-3542792D01*
X1606804Y-3541522D01*
X1598269Y-3540760D01*
G37*
G36*
X1592580Y-3637026D02*
G01*
X1584350Y-3637229D01*
X1576628Y-3637737D01*
X1569466Y-3638600D01*
X1562811Y-3639820D01*
X1556715Y-3641344D01*
X1551127Y-3643223D01*
X1546098Y-3645357D01*
X1541627Y-3647846D01*
X1537665Y-3650538D01*
X1534210Y-3653586D01*
X1531315Y-3656837D01*
X1528978Y-3660394D01*
X1527149Y-3664153D01*
X1525828Y-3668166D01*
X1525016Y-3672433D01*
X1524762Y-3676904D01*
X1536446Y-3676904D01*
X1536801Y-3673144D01*
X1537919Y-3669588D01*
X1539798Y-3666337D01*
X1542440Y-3663289D01*
X1545844Y-3660546D01*
X1550060Y-3658158D01*
X1555038Y-3656025D01*
X1560880Y-3654247D01*
X1567535Y-3652875D01*
X1575003Y-3651859D01*
X1583385Y-3651199D01*
X1592580Y-3650996D01*
X1601673Y-3651199D01*
X1609902Y-3651859D01*
X1617268Y-3652875D01*
X1623822Y-3654247D01*
X1629511Y-3656025D01*
X1634439Y-3658158D01*
X1638554Y-3660546D01*
X1641856Y-3663289D01*
X1644446Y-3666337D01*
X1646275Y-3669588D01*
X1647342Y-3673144D01*
X1647698Y-3676904D01*
X1647342Y-3680663D01*
X1646275Y-3684168D01*
X1644446Y-3687470D01*
X1641856Y-3690416D01*
X1638554Y-3693160D01*
X1634439Y-3695547D01*
X1629511Y-3697630D01*
X1623822Y-3699357D01*
X1617268Y-3700729D01*
X1609902Y-3701745D01*
X1601673Y-3702354D01*
X1592580Y-3702558D01*
X1583385Y-3702354D01*
X1575003Y-3701745D01*
X1567535Y-3700729D01*
X1560880Y-3699357D01*
X1555038Y-3697630D01*
X1550060Y-3695547D01*
X1545844Y-3693160D01*
X1542440Y-3690416D01*
X1539798Y-3687470D01*
X1537919Y-3684168D01*
X1536801Y-3680663D01*
X1536446Y-3676904D01*
X1524762Y-3676904D01*
X1525016Y-3681374D01*
X1525828Y-3685590D01*
X1527149Y-3689604D01*
X1528978Y-3693363D01*
X1531315Y-3696919D01*
X1534210Y-3700170D01*
X1537665Y-3703167D01*
X1541627Y-3705860D01*
X1546098Y-3708298D01*
X1551127Y-3710432D01*
X1556715Y-3712260D01*
X1562811Y-3713784D01*
X1569466Y-3714953D01*
X1576628Y-3715816D01*
X1584350Y-3716375D01*
X1592580Y-3716528D01*
X1600758Y-3716375D01*
X1608378Y-3715816D01*
X1615490Y-3714953D01*
X1622044Y-3713784D01*
X1628038Y-3712260D01*
X1633575Y-3710432D01*
X1638503Y-3708298D01*
X1642973Y-3705860D01*
X1646885Y-3703167D01*
X1650288Y-3700170D01*
X1653133Y-3696919D01*
X1655470Y-3693363D01*
X1657299Y-3689604D01*
X1658620Y-3685590D01*
X1659382Y-3681374D01*
X1659636Y-3676904D01*
X1659382Y-3672433D01*
X1658620Y-3668166D01*
X1657350Y-3664153D01*
X1655521Y-3660394D01*
X1653184Y-3656837D01*
X1650339Y-3653586D01*
X1646986Y-3650538D01*
X1643075Y-3647846D01*
X1638655Y-3645357D01*
X1633677Y-3643223D01*
X1628190Y-3641344D01*
X1622145Y-3639820D01*
X1615541Y-3638600D01*
X1608429Y-3637737D01*
X1600809Y-3637229D01*
G37*
G36*
X1542542Y-3731006D02*
G01*
X1539138Y-3734358D01*
X1535887Y-3738168D01*
X1532890Y-3742436D01*
X1530248Y-3747211D01*
X1527962Y-3752596D01*
X1526235Y-3758539D01*
X1525168Y-3765143D01*
X1524762Y-3772408D01*
X1525066Y-3777945D01*
X1525879Y-3783279D01*
X1527251Y-3788359D01*
X1529181Y-3793032D01*
X1531620Y-3797401D01*
X1534515Y-3801313D01*
X1537919Y-3804767D01*
X1541780Y-3807714D01*
X1546098Y-3810101D01*
X1550822Y-3811828D01*
X1556004Y-3812946D01*
X1561592Y-3813301D01*
X1568043Y-3812743D01*
X1573885Y-3811117D01*
X1579118Y-3808526D01*
X1583639Y-3805123D01*
X1587550Y-3801008D01*
X1590700Y-3796284D01*
X1593138Y-3791000D01*
X1594866Y-3785362D01*
X1595628Y-3785362D01*
X1597761Y-3790391D01*
X1600454Y-3794912D01*
X1603603Y-3798874D01*
X1607312Y-3802278D01*
X1611528Y-3805021D01*
X1616252Y-3807053D01*
X1621536Y-3808323D01*
X1627378Y-3808729D01*
X1634693Y-3808018D01*
X1641093Y-3805936D01*
X1646631Y-3802634D01*
X1651203Y-3798163D01*
X1654860Y-3792778D01*
X1657502Y-3786428D01*
X1659077Y-3779367D01*
X1659636Y-3771646D01*
X1659331Y-3766261D01*
X1658467Y-3761181D01*
X1657096Y-3756406D01*
X1655216Y-3751834D01*
X1652930Y-3747515D01*
X1650339Y-3743451D01*
X1647342Y-3739540D01*
X1644142Y-3735832D01*
X1634744Y-3743960D01*
X1639976Y-3749700D01*
X1644091Y-3756202D01*
X1646834Y-3763365D01*
X1647952Y-3771137D01*
X1647494Y-3776218D01*
X1646275Y-3780688D01*
X1644446Y-3784600D01*
X1641906Y-3787901D01*
X1638807Y-3790492D01*
X1635150Y-3792423D01*
X1630984Y-3793591D01*
X1626362Y-3793998D01*
X1621028Y-3793540D01*
X1616100Y-3792118D01*
X1611680Y-3789578D01*
X1607870Y-3785920D01*
X1604772Y-3780942D01*
X1602435Y-3774592D01*
X1600962Y-3766820D01*
X1600454Y-3757422D01*
X1589024Y-3757422D01*
X1588516Y-3767886D01*
X1587093Y-3776624D01*
X1584807Y-3783736D01*
X1581658Y-3789324D01*
X1577746Y-3793540D01*
X1573174Y-3796385D01*
X1567942Y-3798062D01*
X1562100Y-3798570D01*
X1556562Y-3798062D01*
X1551635Y-3796537D01*
X1547317Y-3794099D01*
X1543710Y-3790899D01*
X1540814Y-3786936D01*
X1538732Y-3782263D01*
X1537411Y-3777081D01*
X1536954Y-3771392D01*
X1537258Y-3765854D01*
X1538173Y-3760825D01*
X1539646Y-3756202D01*
X1541475Y-3752037D01*
X1543761Y-3748278D01*
X1546301Y-3744772D01*
X1549044Y-3741572D01*
X1551940Y-3738626D01*
G37*
G36*
X1563370Y-3826764D02*
G01*
X1563370Y-3842258D01*
X1574800Y-3842258D01*
X1621536Y-3873754D01*
X1630832Y-3879037D01*
X1640332Y-3883914D01*
X1640332Y-3884929D01*
X1628800Y-3884117D01*
X1617218Y-3883660D01*
X1574800Y-3883660D01*
X1574800Y-3842258D01*
X1563370Y-3842258D01*
X1563370Y-3883660D01*
X1527048Y-3883660D01*
X1527048Y-3897376D01*
X1563370Y-3897376D01*
X1563370Y-3915156D01*
X1574800Y-3915156D01*
X1574800Y-3897376D01*
X1657096Y-3897376D01*
X1657096Y-3881882D01*
X1572768Y-3826764D01*
G37*
G36*
X1640586Y-3928110D02*
G01*
X1632204Y-3936492D01*
X1638401Y-3942537D01*
X1643278Y-3949242D01*
X1646529Y-3956507D01*
X1647698Y-3964432D01*
X1647189Y-3970223D01*
X1645666Y-3975252D01*
X1643278Y-3979468D01*
X1640078Y-3982923D01*
X1636166Y-3985615D01*
X1631645Y-3987546D01*
X1626565Y-3988663D01*
X1621028Y-3989070D01*
X1616760Y-3988866D01*
X1612341Y-3988206D01*
X1607870Y-3987088D01*
X1603248Y-3985514D01*
X1598523Y-3983482D01*
X1593646Y-3980992D01*
X1588668Y-3978046D01*
X1583486Y-3974592D01*
X1578203Y-3970680D01*
X1572666Y-3966210D01*
X1561185Y-3955846D01*
X1555089Y-3949903D01*
X1542389Y-3936390D01*
X1535684Y-3928872D01*
X1527048Y-3928872D01*
X1527048Y-4009390D01*
X1539494Y-4009390D01*
X1539443Y-3966921D01*
X1538986Y-3956100D01*
X1538478Y-3950715D01*
X1549501Y-3962146D01*
X1560271Y-3972407D01*
X1570837Y-3981399D01*
X1576070Y-3985412D01*
X1581251Y-3989019D01*
X1586382Y-3992270D01*
X1591462Y-3995115D01*
X1596542Y-3997553D01*
X1601571Y-3999585D01*
X1606600Y-4001160D01*
X1611579Y-4002328D01*
X1616557Y-4003040D01*
X1621536Y-4003294D01*
X1627124Y-4002989D01*
X1632407Y-4002125D01*
X1637233Y-4000703D01*
X1641703Y-3998772D01*
X1645716Y-3996283D01*
X1649272Y-3993286D01*
X1652320Y-3989832D01*
X1654911Y-3985920D01*
X1656943Y-3981551D01*
X1658416Y-3976725D01*
X1659331Y-3971544D01*
X1659636Y-3965956D01*
X1659280Y-3960114D01*
X1658213Y-3954627D01*
X1656537Y-3949598D01*
X1654302Y-3944823D01*
X1651507Y-3940352D01*
X1648256Y-3936136D01*
X1644599Y-3932072D01*
G37*
G36*
X1592580Y-4027424D02*
G01*
X1584350Y-4027627D01*
X1576628Y-4028135D01*
X1569466Y-4028998D01*
X1562811Y-4030218D01*
X1556715Y-4031792D01*
X1551127Y-4033621D01*
X1546098Y-4035806D01*
X1541627Y-4038244D01*
X1537665Y-4040987D01*
X1534210Y-4044035D01*
X1531315Y-4047337D01*
X1528978Y-4050893D01*
X1527149Y-4054703D01*
X1525828Y-4058767D01*
X1525016Y-4063034D01*
X1524762Y-4067556D01*
X1536446Y-4067556D01*
X1536801Y-4063796D01*
X1537919Y-4060240D01*
X1539798Y-4056938D01*
X1542440Y-4053890D01*
X1545844Y-4051147D01*
X1550060Y-4048658D01*
X1555038Y-4046524D01*
X1560880Y-4044746D01*
X1567535Y-4043324D01*
X1575003Y-4042257D01*
X1583385Y-4041597D01*
X1592580Y-4041394D01*
X1601673Y-4041597D01*
X1609902Y-4042257D01*
X1617268Y-4043324D01*
X1623822Y-4044746D01*
X1629511Y-4046524D01*
X1634439Y-4048658D01*
X1638554Y-4051147D01*
X1641856Y-4053890D01*
X1644446Y-4056938D01*
X1646275Y-4060240D01*
X1647342Y-4063796D01*
X1647698Y-4067556D01*
X1647342Y-4071264D01*
X1646275Y-4074718D01*
X1644446Y-4077970D01*
X1641856Y-4080916D01*
X1638554Y-4083608D01*
X1634439Y-4085945D01*
X1629511Y-4088028D01*
X1623822Y-4089755D01*
X1617268Y-4091127D01*
X1609902Y-4092143D01*
X1601673Y-4092752D01*
X1592580Y-4092956D01*
X1583385Y-4092752D01*
X1575003Y-4092143D01*
X1567535Y-4091127D01*
X1560880Y-4089755D01*
X1555038Y-4088028D01*
X1550060Y-4085945D01*
X1545844Y-4083608D01*
X1542440Y-4080916D01*
X1539798Y-4077970D01*
X1537919Y-4074718D01*
X1536801Y-4071264D01*
X1536446Y-4067556D01*
X1524762Y-4067556D01*
X1525016Y-4071975D01*
X1525828Y-4076192D01*
X1527149Y-4080154D01*
X1528978Y-4083913D01*
X1531315Y-4087418D01*
X1534210Y-4090720D01*
X1537665Y-4093718D01*
X1541627Y-4096410D01*
X1546098Y-4098848D01*
X1551127Y-4100982D01*
X1556715Y-4102862D01*
X1562811Y-4104386D01*
X1569466Y-4105605D01*
X1576628Y-4106468D01*
X1584350Y-4106976D01*
X1592580Y-4107179D01*
X1600758Y-4106976D01*
X1608378Y-4106468D01*
X1615490Y-4105605D01*
X1622044Y-4104386D01*
X1628038Y-4102862D01*
X1633575Y-4100982D01*
X1638503Y-4098848D01*
X1642973Y-4096410D01*
X1646885Y-4093718D01*
X1650288Y-4090720D01*
X1653133Y-4087418D01*
X1655470Y-4083913D01*
X1657299Y-4080154D01*
X1658620Y-4076192D01*
X1659382Y-4071975D01*
X1659636Y-4067556D01*
X1659382Y-4063034D01*
X1658620Y-4058767D01*
X1657350Y-4054703D01*
X1655521Y-4050893D01*
X1653184Y-4047337D01*
X1650339Y-4044035D01*
X1646986Y-4040987D01*
X1643075Y-4038244D01*
X1638655Y-4035806D01*
X1633677Y-4033621D01*
X1628190Y-4031792D01*
X1622145Y-4030218D01*
X1615541Y-4028998D01*
X1608429Y-4028135D01*
X1600809Y-4027627D01*
G37*
G36*
X1527048Y-4132072D02*
G01*
X1527048Y-4201922D01*
X1539240Y-4201922D01*
X1539240Y-4175506D01*
X1657096Y-4175506D01*
X1657096Y-4164584D01*
X1654302Y-4159148D01*
X1651914Y-4153001D01*
X1649882Y-4146042D01*
X1648206Y-4138168D01*
X1638807Y-4138168D01*
X1638807Y-4161028D01*
X1539240Y-4161028D01*
X1539240Y-4132072D01*
G37*
G36*
X1527048Y-4271518D02*
G01*
X1527048Y-4286250D01*
X1645412Y-4286250D01*
X1645412Y-4309110D01*
X1645107Y-4316476D01*
X1644091Y-4322978D01*
X1642364Y-4328566D01*
X1639874Y-4333189D01*
X1636572Y-4336846D01*
X1632356Y-4339488D01*
X1627174Y-4341063D01*
X1621028Y-4341622D01*
X1614982Y-4341063D01*
X1609750Y-4339488D01*
X1605330Y-4336846D01*
X1601724Y-4333189D01*
X1598930Y-4328566D01*
X1596948Y-4322978D01*
X1595780Y-4316476D01*
X1595374Y-4309110D01*
X1595374Y-4286250D01*
X1583182Y-4286250D01*
X1583182Y-4310634D01*
X1527048Y-4343146D01*
X1527048Y-4359656D01*
X1584706Y-4326128D01*
X1586585Y-4332681D01*
X1589227Y-4338574D01*
X1592630Y-4343704D01*
X1596796Y-4348124D01*
X1601673Y-4351629D01*
X1607362Y-4354220D01*
X1613814Y-4355795D01*
X1621028Y-4356354D01*
X1627327Y-4355998D01*
X1632966Y-4354880D01*
X1637893Y-4353052D01*
X1642211Y-4350562D01*
X1645920Y-4347464D01*
X1649069Y-4343806D01*
X1651609Y-4339539D01*
X1653692Y-4334814D01*
X1655216Y-4329582D01*
X1656283Y-4323892D01*
X1656892Y-4317847D01*
X1657096Y-4311396D01*
X1657096Y-4271518D01*
G37*
G36*
X1574800Y-4372356D02*
G01*
X1567180Y-4372762D01*
X1560169Y-4373981D01*
X1553718Y-4375912D01*
X1547825Y-4378553D01*
X1542592Y-4381804D01*
X1537970Y-4385665D01*
X1537140Y-4386580D01*
X1582420Y-4386580D01*
X1589481Y-4387799D01*
X1595678Y-4389932D01*
X1601114Y-4392828D01*
X1605584Y-4396384D01*
X1609191Y-4400499D01*
X1611782Y-4405071D01*
X1613357Y-4410049D01*
X1613916Y-4415282D01*
X1613408Y-4420870D01*
X1611884Y-4425797D01*
X1609394Y-4430064D01*
X1605889Y-4433620D01*
X1601419Y-4436465D01*
X1596034Y-4438497D01*
X1589684Y-4439767D01*
X1582420Y-4440174D01*
X1582420Y-4386580D01*
X1537140Y-4386580D01*
X1534007Y-4390034D01*
X1530756Y-4394860D01*
X1528165Y-4400092D01*
X1526286Y-4405731D01*
X1525168Y-4411624D01*
X1524762Y-4417822D01*
X1525524Y-4427220D01*
X1527606Y-4435449D01*
X1530654Y-4442764D01*
X1534414Y-4449318D01*
X1544066Y-4443984D01*
X1540814Y-4438497D01*
X1538325Y-4432655D01*
X1536750Y-4426356D01*
X1536192Y-4419600D01*
X1536852Y-4412742D01*
X1538732Y-4406544D01*
X1541830Y-4401058D01*
X1545996Y-4396384D01*
X1551127Y-4392523D01*
X1557172Y-4389577D01*
X1564081Y-4387697D01*
X1571752Y-4386834D01*
X1571752Y-4452366D01*
X1575917Y-4452924D01*
X1580642Y-4453128D01*
X1587347Y-4452823D01*
X1593596Y-4451959D01*
X1599336Y-4450588D01*
X1604619Y-4448606D01*
X1609344Y-4446168D01*
X1613509Y-4443171D01*
X1617116Y-4439666D01*
X1620113Y-4435703D01*
X1622450Y-4431284D01*
X1624177Y-4426356D01*
X1625244Y-4421022D01*
X1625600Y-4415282D01*
X1625193Y-4409795D01*
X1624025Y-4404410D01*
X1622044Y-4399229D01*
X1619351Y-4394352D01*
X1615998Y-4389729D01*
X1611934Y-4385513D01*
X1607210Y-4381804D01*
X1601876Y-4378553D01*
X1595932Y-4375962D01*
X1589430Y-4373981D01*
X1582369Y-4372762D01*
G37*
G36*
X1485900Y-4477512D02*
G01*
X1485900Y-4491736D01*
X1518920Y-4491736D01*
X1535938Y-4491482D01*
X1531213Y-4498289D01*
X1527708Y-4505045D01*
X1525524Y-4511751D01*
X1524994Y-4516374D01*
X1536954Y-4516374D01*
X1537512Y-4511040D01*
X1539290Y-4504994D01*
X1542542Y-4498492D01*
X1547368Y-4491736D01*
X1599438Y-4491736D01*
X1605432Y-4498949D01*
X1609750Y-4505756D01*
X1612290Y-4512310D01*
X1613154Y-4518660D01*
X1612493Y-4525365D01*
X1610461Y-4530953D01*
X1607261Y-4535576D01*
X1602943Y-4539234D01*
X1597660Y-4541977D01*
X1591411Y-4543856D01*
X1584350Y-4544974D01*
X1576578Y-4545330D01*
X1567891Y-4544771D01*
X1560118Y-4543145D01*
X1553311Y-4540605D01*
X1547622Y-4537151D01*
X1543050Y-4532884D01*
X1539697Y-4527956D01*
X1537665Y-4522419D01*
X1536954Y-4516374D01*
X1524994Y-4516374D01*
X1524762Y-4518406D01*
X1525168Y-4523943D01*
X1526336Y-4529277D01*
X1528267Y-4534408D01*
X1530908Y-4539284D01*
X1534312Y-4543755D01*
X1538376Y-4547870D01*
X1543151Y-4551476D01*
X1548587Y-4554626D01*
X1554683Y-4557115D01*
X1561388Y-4558995D01*
X1568653Y-4560163D01*
X1576578Y-4560570D01*
X1583740Y-4560265D01*
X1590446Y-4559452D01*
X1596694Y-4558080D01*
X1602384Y-4556150D01*
X1607566Y-4553712D01*
X1612138Y-4550714D01*
X1616100Y-4547158D01*
X1619453Y-4543145D01*
X1622094Y-4538624D01*
X1624025Y-4533544D01*
X1625193Y-4528007D01*
X1625600Y-4521962D01*
X1624482Y-4513681D01*
X1621434Y-4505756D01*
X1617014Y-4498187D01*
X1611884Y-4491228D01*
X1611884Y-4490720D01*
X1623060Y-4489196D01*
X1623060Y-4477512D01*
G37*
G36*
X1527048Y-4586732D02*
G01*
X1527048Y-4601210D01*
X1589532Y-4601210D01*
X1600200Y-4606696D01*
X1607261Y-4612944D01*
X1611172Y-4619498D01*
X1612392Y-4625848D01*
X1612036Y-4630623D01*
X1610868Y-4634992D01*
X1623314Y-4637786D01*
X1624431Y-4635500D01*
X1625142Y-4633061D01*
X1625498Y-4630521D01*
X1625600Y-4627626D01*
X1624126Y-4619802D01*
X1620062Y-4612487D01*
X1613712Y-4605985D01*
X1605534Y-4600448D01*
X1605534Y-4599940D01*
X1623060Y-4598416D01*
X1623060Y-4586732D01*
G37*
G36*
X1574800Y-4644644D02*
G01*
X1567180Y-4645050D01*
X1560169Y-4646320D01*
X1553718Y-4648250D01*
X1547825Y-4650892D01*
X1542592Y-4654143D01*
X1537970Y-4657953D01*
X1534007Y-4662271D01*
X1530756Y-4666996D01*
X1528165Y-4672076D01*
X1526286Y-4677460D01*
X1525168Y-4683048D01*
X1524762Y-4688840D01*
X1536954Y-4688840D01*
X1537665Y-4682642D01*
X1539697Y-4677003D01*
X1542948Y-4672025D01*
X1547418Y-4667758D01*
X1552905Y-4664303D01*
X1559356Y-4661763D01*
X1566672Y-4660188D01*
X1574800Y-4659630D01*
X1583080Y-4660188D01*
X1590548Y-4661763D01*
X1597101Y-4664303D01*
X1602638Y-4667758D01*
X1607108Y-4672025D01*
X1610410Y-4677003D01*
X1612442Y-4682642D01*
X1613154Y-4688840D01*
X1612442Y-4695088D01*
X1610410Y-4700727D01*
X1607108Y-4705756D01*
X1602638Y-4710074D01*
X1597101Y-4713528D01*
X1590548Y-4716119D01*
X1583080Y-4717745D01*
X1574800Y-4718304D01*
X1566672Y-4717745D01*
X1559356Y-4716119D01*
X1552905Y-4713528D01*
X1547418Y-4710023D01*
X1542948Y-4705756D01*
X1539697Y-4700727D01*
X1537665Y-4695088D01*
X1536954Y-4688840D01*
X1524762Y-4688840D01*
X1525168Y-4694631D01*
X1526286Y-4700219D01*
X1528165Y-4705604D01*
X1530756Y-4710684D01*
X1534007Y-4715408D01*
X1537970Y-4719726D01*
X1542592Y-4723536D01*
X1547825Y-4726787D01*
X1553718Y-4729429D01*
X1560169Y-4731410D01*
X1567180Y-4732629D01*
X1574800Y-4733036D01*
X1582572Y-4732629D01*
X1589786Y-4731410D01*
X1596339Y-4729429D01*
X1602333Y-4726787D01*
X1607616Y-4723485D01*
X1612290Y-4719675D01*
X1616303Y-4715408D01*
X1619605Y-4710684D01*
X1622196Y-4705604D01*
X1624076Y-4700219D01*
X1625244Y-4694631D01*
X1625600Y-4688840D01*
X1625244Y-4683048D01*
X1624076Y-4677460D01*
X1622196Y-4672076D01*
X1619605Y-4666996D01*
X1616303Y-4662271D01*
X1612290Y-4658004D01*
X1607616Y-4654194D01*
X1602333Y-4650892D01*
X1596339Y-4648250D01*
X1589786Y-4646320D01*
X1582572Y-4645050D01*
G37*
G36*
X1570990Y-4790186D02*
G01*
X1570990Y-4835144D01*
X1582420Y-4835144D01*
X1582420Y-4790186D01*
G37*
G36*
X1591056Y-4892548D02*
G01*
X1583639Y-4892903D01*
X1576628Y-4893868D01*
X1569974Y-4895494D01*
X1563725Y-4897678D01*
X1557832Y-4900422D01*
X1552397Y-4903673D01*
X1547418Y-4907381D01*
X1542897Y-4911547D01*
X1538833Y-4916119D01*
X1535277Y-4921046D01*
X1532178Y-4926330D01*
X1529638Y-4931867D01*
X1527657Y-4937709D01*
X1526184Y-4943703D01*
X1525320Y-4949952D01*
X1525016Y-4956302D01*
X1532636Y-4956302D01*
X1532890Y-4950764D01*
X1533702Y-4945329D01*
X1535023Y-4940096D01*
X1536852Y-4935067D01*
X1539138Y-4930241D01*
X1541881Y-4925669D01*
X1545082Y-4921453D01*
X1548688Y-4917490D01*
X1552752Y-4913934D01*
X1557172Y-4910734D01*
X1561998Y-4907940D01*
X1567129Y-4905603D01*
X1572666Y-4903724D01*
X1578508Y-4902301D01*
X1584604Y-4901488D01*
X1591056Y-4901184D01*
X1597456Y-4901488D01*
X1603552Y-4902301D01*
X1609344Y-4903724D01*
X1614779Y-4905603D01*
X1619910Y-4907940D01*
X1624685Y-4910734D01*
X1629054Y-4913934D01*
X1633067Y-4917490D01*
X1636674Y-4921453D01*
X1639824Y-4925669D01*
X1642567Y-4930241D01*
X1644802Y-4935067D01*
X1646631Y-4940096D01*
X1647901Y-4945329D01*
X1648714Y-4950764D01*
X1648968Y-4956302D01*
X1648714Y-4961839D01*
X1647901Y-4967274D01*
X1646631Y-4972558D01*
X1644802Y-4977587D01*
X1642567Y-4982413D01*
X1639824Y-4986985D01*
X1636674Y-4991252D01*
X1633067Y-4995214D01*
X1629054Y-4998821D01*
X1624685Y-5002072D01*
X1619910Y-5004866D01*
X1614779Y-5007254D01*
X1609344Y-5009134D01*
X1603552Y-5010505D01*
X1597456Y-5011369D01*
X1591056Y-5011674D01*
X1584604Y-5011369D01*
X1578508Y-5010505D01*
X1572666Y-5009134D01*
X1567129Y-5007254D01*
X1561998Y-5004866D01*
X1557172Y-5002072D01*
X1552752Y-4998821D01*
X1548688Y-4995214D01*
X1545082Y-4991252D01*
X1541881Y-4986985D01*
X1539138Y-4982413D01*
X1536852Y-4977587D01*
X1535023Y-4972558D01*
X1533702Y-4967274D01*
X1532890Y-4961839D01*
X1532636Y-4956302D01*
X1525016Y-4956302D01*
X1525320Y-4962702D01*
X1526184Y-4968951D01*
X1527657Y-4975047D01*
X1529638Y-4980889D01*
X1532178Y-4986477D01*
X1535277Y-4991760D01*
X1538833Y-4996688D01*
X1542897Y-5001260D01*
X1547418Y-5005425D01*
X1552397Y-5009184D01*
X1557832Y-5012436D01*
X1563725Y-5015179D01*
X1569974Y-5017363D01*
X1576628Y-5018989D01*
X1583639Y-5019954D01*
X1591056Y-5020310D01*
X1598371Y-5019954D01*
X1605330Y-5018989D01*
X1611934Y-5017363D01*
X1618132Y-5015179D01*
X1623923Y-5012436D01*
X1629308Y-5009184D01*
X1634286Y-5005425D01*
X1638757Y-5001260D01*
X1642821Y-4996688D01*
X1646377Y-4991760D01*
X1649425Y-4986477D01*
X1651965Y-4980889D01*
X1653946Y-4975047D01*
X1655419Y-4968951D01*
X1656283Y-4962702D01*
X1656588Y-4956302D01*
X1656283Y-4949952D01*
X1655419Y-4943703D01*
X1653997Y-4937709D01*
X1652016Y-4931867D01*
X1649475Y-4926330D01*
X1646428Y-4921046D01*
X1642922Y-4916119D01*
X1638858Y-4911547D01*
X1634388Y-4907381D01*
X1629410Y-4903673D01*
X1624025Y-4900422D01*
X1618234Y-4897678D01*
X1611985Y-4895494D01*
X1605381Y-4893868D01*
X1598422Y-4892903D01*
G37*
G36*
X1591056Y-4922012D02*
G01*
X1585112Y-4922316D01*
X1579575Y-4923282D01*
X1574495Y-4924806D01*
X1569923Y-4926888D01*
X1565757Y-4929428D01*
X1562150Y-4932476D01*
X1559001Y-4935880D01*
X1556410Y-4939639D01*
X1554378Y-4943754D01*
X1552905Y-4948123D01*
X1551990Y-4952746D01*
X1551686Y-4957572D01*
X1552600Y-4965903D01*
X1555038Y-4972913D01*
X1558645Y-4979009D01*
X1563116Y-4984496D01*
X1570990Y-4979162D01*
X1567434Y-4974590D01*
X1564538Y-4969814D01*
X1562557Y-4964480D01*
X1561846Y-4958334D01*
X1562354Y-4953050D01*
X1563878Y-4948326D01*
X1566316Y-4944160D01*
X1569669Y-4940604D01*
X1573885Y-4937760D01*
X1578864Y-4935677D01*
X1584604Y-4934407D01*
X1591056Y-4933950D01*
X1596796Y-4934407D01*
X1602079Y-4935778D01*
X1606702Y-4937963D01*
X1610664Y-4940858D01*
X1613865Y-4944516D01*
X1616252Y-4948732D01*
X1617726Y-4953558D01*
X1618234Y-4958842D01*
X1617726Y-4963922D01*
X1616151Y-4968392D01*
X1613611Y-4972507D01*
X1610106Y-4976622D01*
X1617218Y-4982972D01*
X1621637Y-4977993D01*
X1625193Y-4972456D01*
X1627530Y-4966004D01*
X1628394Y-4958334D01*
X1628089Y-4953609D01*
X1627225Y-4949037D01*
X1625803Y-4944618D01*
X1623872Y-4940452D01*
X1621383Y-4936591D01*
X1618386Y-4933035D01*
X1614932Y-4929886D01*
X1611020Y-4927193D01*
X1606651Y-4925009D01*
X1601825Y-4923383D01*
X1596644Y-4922367D01*
G37*
G36*
X1527048Y-5087874D02*
G01*
X1527048Y-5102606D01*
X1645412Y-5102606D01*
X1645412Y-5123434D01*
X1645107Y-5130850D01*
X1644243Y-5137353D01*
X1642719Y-5142839D01*
X1640484Y-5147360D01*
X1637538Y-5150866D01*
X1633728Y-5153406D01*
X1629105Y-5154930D01*
X1623568Y-5155438D01*
X1618691Y-5154980D01*
X1614322Y-5153609D01*
X1610563Y-5151221D01*
X1607362Y-5147767D01*
X1604822Y-5143246D01*
X1602994Y-5137556D01*
X1601876Y-5130596D01*
X1601470Y-5122418D01*
X1601470Y-5102606D01*
X1590040Y-5102606D01*
X1590040Y-5125974D01*
X1589684Y-5134356D01*
X1588566Y-5141772D01*
X1586738Y-5148173D01*
X1584147Y-5153507D01*
X1580743Y-5157724D01*
X1576527Y-5160822D01*
X1571498Y-5162651D01*
X1565656Y-5163312D01*
X1559153Y-5162651D01*
X1553616Y-5160721D01*
X1548993Y-5157571D01*
X1545234Y-5153304D01*
X1542389Y-5147970D01*
X1540357Y-5141569D01*
X1539138Y-5134203D01*
X1538732Y-5125974D01*
X1538732Y-5102606D01*
X1527048Y-5102606D01*
X1527048Y-5128260D01*
X1527302Y-5135372D01*
X1528114Y-5142077D01*
X1529435Y-5148275D01*
X1531264Y-5154015D01*
X1533652Y-5159197D01*
X1536598Y-5163870D01*
X1540002Y-5167884D01*
X1543964Y-5171236D01*
X1548485Y-5173929D01*
X1553514Y-5175910D01*
X1559052Y-5177129D01*
X1565148Y-5177536D01*
X1571498Y-5177028D01*
X1577086Y-5175554D01*
X1582064Y-5173218D01*
X1586280Y-5170068D01*
X1589836Y-5166156D01*
X1592732Y-5161584D01*
X1594916Y-5156352D01*
X1596390Y-5150612D01*
X1597152Y-5150612D01*
X1598980Y-5155031D01*
X1601470Y-5158892D01*
X1604467Y-5162194D01*
X1607921Y-5164937D01*
X1611782Y-5167071D01*
X1616049Y-5168646D01*
X1620570Y-5169611D01*
X1625346Y-5169916D01*
X1630730Y-5169560D01*
X1635556Y-5168493D01*
X1639824Y-5166715D01*
X1643634Y-5164328D01*
X1646885Y-5161280D01*
X1649679Y-5157673D01*
X1652016Y-5153507D01*
X1653895Y-5148834D01*
X1655318Y-5143652D01*
X1656334Y-5138013D01*
X1656892Y-5131968D01*
X1657096Y-5125466D01*
X1657096Y-5087874D01*
G37*
G36*
X1592072Y-5196078D02*
G01*
X1584350Y-5196332D01*
X1577086Y-5197195D01*
X1570228Y-5198516D01*
X1563776Y-5200345D01*
X1557782Y-5202631D01*
X1552244Y-5205425D01*
X1547164Y-5208625D01*
X1542592Y-5212283D01*
X1538528Y-5216296D01*
X1534922Y-5220716D01*
X1531874Y-5225491D01*
X1529334Y-5230571D01*
X1527352Y-5236006D01*
X1525930Y-5241747D01*
X1525066Y-5247741D01*
X1524762Y-5253990D01*
X1525066Y-5260390D01*
X1525879Y-5266436D01*
X1527149Y-5272074D01*
X1528927Y-5277358D01*
X1531112Y-5282184D01*
X1533652Y-5286552D01*
X1536547Y-5290464D01*
X1539748Y-5293868D01*
X1593850Y-5293868D01*
X1593850Y-5251958D01*
X1581404Y-5251958D01*
X1581404Y-5280152D01*
X1545844Y-5280152D01*
X1542440Y-5275427D01*
X1539900Y-5269433D01*
X1538274Y-5262676D01*
X1537716Y-5255514D01*
X1538173Y-5248706D01*
X1539443Y-5242458D01*
X1541526Y-5236718D01*
X1544421Y-5231536D01*
X1548079Y-5226913D01*
X1552498Y-5222849D01*
X1557578Y-5219395D01*
X1563319Y-5216499D01*
X1569770Y-5214264D01*
X1576781Y-5212638D01*
X1584401Y-5211673D01*
X1592580Y-5211318D01*
X1600657Y-5211673D01*
X1608124Y-5212740D01*
X1615033Y-5214416D01*
X1621332Y-5216804D01*
X1626971Y-5219750D01*
X1632000Y-5223306D01*
X1636268Y-5227421D01*
X1639874Y-5232095D01*
X1642719Y-5237226D01*
X1644751Y-5242915D01*
X1646021Y-5249011D01*
X1646428Y-5255514D01*
X1645462Y-5264759D01*
X1642872Y-5272430D01*
X1638909Y-5278831D01*
X1633982Y-5284216D01*
X1643634Y-5292344D01*
X1646529Y-5289296D01*
X1649374Y-5285841D01*
X1652066Y-5281930D01*
X1654505Y-5277612D01*
X1656588Y-5272786D01*
X1658213Y-5267502D01*
X1659280Y-5261660D01*
X1659636Y-5255260D01*
X1659331Y-5248910D01*
X1658467Y-5242814D01*
X1656994Y-5236972D01*
X1654962Y-5231434D01*
X1652422Y-5226202D01*
X1649323Y-5221376D01*
X1645716Y-5216855D01*
X1641551Y-5212689D01*
X1636979Y-5208981D01*
X1631848Y-5205679D01*
X1626311Y-5202834D01*
X1620316Y-5200446D01*
X1613865Y-5198567D01*
X1607007Y-5197195D01*
X1599742Y-5196382D01*
G37*
G36*
X1592580Y-5317744D02*
G01*
X1585010Y-5317998D01*
X1577797Y-5318810D01*
X1570939Y-5320080D01*
X1564538Y-5321808D01*
X1558493Y-5324043D01*
X1552905Y-5326684D01*
X1547825Y-5329732D01*
X1543151Y-5333187D01*
X1538986Y-5336997D01*
X1535328Y-5341162D01*
X1532178Y-5345684D01*
X1529537Y-5350510D01*
X1527454Y-5355640D01*
X1525981Y-5361076D01*
X1525066Y-5366715D01*
X1524762Y-5372608D01*
X1537716Y-5372608D01*
X1538173Y-5366816D01*
X1539494Y-5361381D01*
X1541627Y-5356301D01*
X1544523Y-5351678D01*
X1548231Y-5347462D01*
X1552651Y-5343702D01*
X1557782Y-5340451D01*
X1563573Y-5337759D01*
X1569974Y-5335625D01*
X1576984Y-5334050D01*
X1584502Y-5333034D01*
X1592580Y-5332730D01*
X1600657Y-5333034D01*
X1608124Y-5334050D01*
X1615033Y-5335625D01*
X1621332Y-5337759D01*
X1626971Y-5340451D01*
X1632000Y-5343702D01*
X1636268Y-5347462D01*
X1639874Y-5351678D01*
X1642719Y-5356301D01*
X1644751Y-5361381D01*
X1646021Y-5366816D01*
X1646428Y-5372608D01*
X1646021Y-5378450D01*
X1644751Y-5383936D01*
X1642719Y-5389067D01*
X1639874Y-5393740D01*
X1636268Y-5397957D01*
X1632000Y-5401716D01*
X1626971Y-5404967D01*
X1621332Y-5407710D01*
X1615033Y-5409844D01*
X1608124Y-5411419D01*
X1600657Y-5412435D01*
X1592580Y-5412740D01*
X1584502Y-5412435D01*
X1576984Y-5411419D01*
X1569974Y-5409844D01*
X1563573Y-5407710D01*
X1557782Y-5404967D01*
X1552651Y-5401716D01*
X1548231Y-5397957D01*
X1544523Y-5393740D01*
X1541627Y-5389067D01*
X1539494Y-5383936D01*
X1538173Y-5378450D01*
X1537716Y-5372608D01*
X1524762Y-5372608D01*
X1525066Y-5378602D01*
X1525981Y-5384292D01*
X1527454Y-5389778D01*
X1529537Y-5394960D01*
X1532178Y-5399786D01*
X1535328Y-5404358D01*
X1538986Y-5408523D01*
X1543151Y-5412384D01*
X1547825Y-5415788D01*
X1552905Y-5418836D01*
X1558493Y-5421477D01*
X1564538Y-5423662D01*
X1570939Y-5425440D01*
X1577797Y-5426710D01*
X1585010Y-5427472D01*
X1592580Y-5427726D01*
X1600149Y-5427472D01*
X1607362Y-5426710D01*
X1614170Y-5425440D01*
X1620520Y-5423662D01*
X1626463Y-5421477D01*
X1632000Y-5418836D01*
X1637030Y-5415788D01*
X1641652Y-5412384D01*
X1645716Y-5408523D01*
X1649323Y-5404358D01*
X1652422Y-5399786D01*
X1654962Y-5394960D01*
X1656994Y-5389778D01*
X1658467Y-5384292D01*
X1659331Y-5378602D01*
X1659636Y-5372608D01*
X1659331Y-5366715D01*
X1658467Y-5361076D01*
X1656994Y-5355640D01*
X1654962Y-5350510D01*
X1652422Y-5345684D01*
X1649323Y-5341162D01*
X1645716Y-5336997D01*
X1641652Y-5333187D01*
X1637030Y-5329732D01*
X1632000Y-5326684D01*
X1626463Y-5324043D01*
X1620520Y-5321808D01*
X1614170Y-5320080D01*
X1607362Y-5318810D01*
X1600149Y-5317998D01*
G37*
G36*
X1527048Y-5456428D02*
G01*
X1527048Y-5528564D01*
X1539494Y-5528564D01*
X1539494Y-5471160D01*
X1657096Y-5471160D01*
X1657096Y-5456428D01*
G37*
G36*
X1527048Y-5551678D02*
G01*
X1527048Y-5623814D01*
X1539494Y-5623814D01*
X1539494Y-5566410D01*
X1657096Y-5566410D01*
X1657096Y-5551678D01*
G37*
G36*
X1527048Y-5646928D02*
G01*
X1527048Y-5661660D01*
X1657096Y-5661660D01*
X1657096Y-5646928D01*
G37*
G36*
X1527048Y-5697982D02*
G01*
X1527048Y-5774182D01*
X1539494Y-5774182D01*
X1539494Y-5712714D01*
X1589532Y-5712714D01*
X1589532Y-5762752D01*
X1601978Y-5762752D01*
X1601978Y-5712714D01*
X1644650Y-5712714D01*
X1644650Y-5772150D01*
X1657096Y-5772150D01*
X1657096Y-5697982D01*
G37*
G36*
X1640586Y-5830570D02*
G01*
X1632204Y-5838952D01*
X1638401Y-5844997D01*
X1643278Y-5851702D01*
X1646529Y-5858967D01*
X1647698Y-5866892D01*
X1647189Y-5872683D01*
X1645666Y-5877712D01*
X1643278Y-5881928D01*
X1640078Y-5885383D01*
X1636166Y-5888075D01*
X1631645Y-5890006D01*
X1626565Y-5891123D01*
X1621028Y-5891530D01*
X1616760Y-5891326D01*
X1612341Y-5890666D01*
X1607870Y-5889548D01*
X1603248Y-5887974D01*
X1598523Y-5885942D01*
X1593646Y-5883452D01*
X1588668Y-5880506D01*
X1583486Y-5877052D01*
X1578203Y-5873140D01*
X1572666Y-5868670D01*
X1561185Y-5858306D01*
X1555089Y-5852363D01*
X1542389Y-5838850D01*
X1535684Y-5831332D01*
X1527048Y-5831332D01*
X1527048Y-5911850D01*
X1539494Y-5911850D01*
X1539443Y-5869381D01*
X1538986Y-5858560D01*
X1538478Y-5853176D01*
X1549501Y-5864606D01*
X1560271Y-5874918D01*
X1570837Y-5883859D01*
X1576070Y-5887872D01*
X1581251Y-5891479D01*
X1586382Y-5894730D01*
X1591462Y-5897575D01*
X1596542Y-5900013D01*
X1601571Y-5902045D01*
X1606600Y-5903620D01*
X1611579Y-5904788D01*
X1616557Y-5905500D01*
X1621536Y-5905754D01*
X1627124Y-5905449D01*
X1632407Y-5904585D01*
X1637233Y-5903163D01*
X1641703Y-5901232D01*
X1645716Y-5898743D01*
X1649272Y-5895746D01*
X1652320Y-5892292D01*
X1654911Y-5888380D01*
X1656943Y-5884011D01*
X1658416Y-5879185D01*
X1659331Y-5874004D01*
X1659636Y-5868416D01*
X1659280Y-5862574D01*
X1658213Y-5857087D01*
X1656537Y-5852058D01*
X1654302Y-5847283D01*
X1651507Y-5842812D01*
X1648256Y-5838596D01*
X1644599Y-5834532D01*
G37*
G36*
X1592580Y-5929884D02*
G01*
X1584350Y-5930087D01*
X1576628Y-5930595D01*
X1569466Y-5931458D01*
X1562811Y-5932678D01*
X1556715Y-5934252D01*
X1551127Y-5936081D01*
X1546098Y-5938266D01*
X1541627Y-5940704D01*
X1537665Y-5943447D01*
X1534210Y-5946495D01*
X1531315Y-5949797D01*
X1528978Y-5953353D01*
X1527149Y-5957163D01*
X1525828Y-5961227D01*
X1525016Y-5965494D01*
X1524762Y-5970016D01*
X1536446Y-5970016D01*
X1536801Y-5966256D01*
X1537919Y-5962700D01*
X1539798Y-5959398D01*
X1542440Y-5956350D01*
X1545844Y-5953607D01*
X1550060Y-5951118D01*
X1555038Y-5948984D01*
X1560880Y-5947206D01*
X1567535Y-5945784D01*
X1575003Y-5944717D01*
X1583385Y-5944057D01*
X1592580Y-5943854D01*
X1601673Y-5944057D01*
X1609902Y-5944717D01*
X1617268Y-5945784D01*
X1623822Y-5947206D01*
X1629511Y-5948984D01*
X1634439Y-5951118D01*
X1638554Y-5953607D01*
X1641856Y-5956350D01*
X1644446Y-5959398D01*
X1646275Y-5962700D01*
X1647342Y-5966256D01*
X1647698Y-5970016D01*
X1647342Y-5973724D01*
X1646275Y-5977178D01*
X1644446Y-5980430D01*
X1641856Y-5983376D01*
X1638554Y-5986068D01*
X1634439Y-5988405D01*
X1629511Y-5990488D01*
X1623822Y-5992215D01*
X1617268Y-5993587D01*
X1609902Y-5994603D01*
X1601673Y-5995212D01*
X1592580Y-5995416D01*
X1583385Y-5995212D01*
X1575003Y-5994603D01*
X1567535Y-5993587D01*
X1560880Y-5992215D01*
X1555038Y-5990488D01*
X1550060Y-5988456D01*
X1545844Y-5986068D01*
X1542440Y-5983376D01*
X1539798Y-5980430D01*
X1537919Y-5977178D01*
X1536801Y-5973724D01*
X1536446Y-5970016D01*
X1524762Y-5970016D01*
X1525016Y-5974435D01*
X1525828Y-5978652D01*
X1527149Y-5982614D01*
X1528978Y-5986373D01*
X1531315Y-5989878D01*
X1534210Y-5993180D01*
X1537665Y-5996178D01*
X1541627Y-5998870D01*
X1546098Y-6001308D01*
X1551127Y-6003442D01*
X1556715Y-6005322D01*
X1562811Y-6006846D01*
X1569466Y-6008065D01*
X1576628Y-6008928D01*
X1584350Y-6009436D01*
X1592580Y-6009640D01*
X1600758Y-6009436D01*
X1608378Y-6008928D01*
X1615490Y-6008065D01*
X1622044Y-6006846D01*
X1628038Y-6005322D01*
X1633575Y-6003442D01*
X1638503Y-6001308D01*
X1642973Y-5998870D01*
X1646885Y-5996178D01*
X1650288Y-5993180D01*
X1653133Y-5989878D01*
X1655470Y-5986373D01*
X1657299Y-5982614D01*
X1658620Y-5978652D01*
X1659382Y-5974435D01*
X1659636Y-5970016D01*
X1659382Y-5965494D01*
X1658620Y-5961227D01*
X1657350Y-5957163D01*
X1655521Y-5953353D01*
X1653184Y-5949797D01*
X1650339Y-5946495D01*
X1646986Y-5943447D01*
X1643075Y-5940704D01*
X1638655Y-5938266D01*
X1633677Y-5936081D01*
X1628190Y-5934252D01*
X1622145Y-5932678D01*
X1615541Y-5931458D01*
X1608429Y-5930595D01*
X1600809Y-5930087D01*
G37*
G36*
X1527048Y-6034532D02*
G01*
X1527048Y-6104382D01*
X1539240Y-6104382D01*
X1539240Y-6077966D01*
X1657096Y-6077966D01*
X1657096Y-6067044D01*
X1654302Y-6061608D01*
X1651914Y-6055461D01*
X1649882Y-6048502D01*
X1648206Y-6040628D01*
X1638807Y-6040628D01*
X1638807Y-6063488D01*
X1539240Y-6063488D01*
X1539240Y-6034532D01*
G37*
G36*
X1617472Y-6124194D02*
G01*
X1611071Y-6124498D01*
X1605178Y-6125311D01*
X1599844Y-6126734D01*
X1595018Y-6128613D01*
X1590751Y-6131001D01*
X1587042Y-6133896D01*
X1583842Y-6137198D01*
X1581251Y-6140958D01*
X1579219Y-6145072D01*
X1577746Y-6149644D01*
X1576882Y-6154521D01*
X1576578Y-6159754D01*
X1576894Y-6162040D01*
X1587500Y-6162040D01*
X1588058Y-6156401D01*
X1589684Y-6151575D01*
X1592275Y-6147460D01*
X1595831Y-6144107D01*
X1600200Y-6141516D01*
X1605280Y-6139637D01*
X1611071Y-6138519D01*
X1617472Y-6138164D01*
X1624025Y-6138621D01*
X1629968Y-6139891D01*
X1635251Y-6141923D01*
X1639722Y-6144615D01*
X1643329Y-6147917D01*
X1645970Y-6151778D01*
X1647647Y-6156096D01*
X1648206Y-6160770D01*
X1647901Y-6165037D01*
X1646936Y-6168999D01*
X1645361Y-6172657D01*
X1643176Y-6175959D01*
X1640433Y-6178956D01*
X1637080Y-6181598D01*
X1633169Y-6183884D01*
X1628698Y-6185865D01*
X1623669Y-6187490D01*
X1618132Y-6188760D01*
X1612087Y-6189675D01*
X1605534Y-6190234D01*
X1597253Y-6183223D01*
X1591665Y-6176060D01*
X1588516Y-6168898D01*
X1587500Y-6162040D01*
X1576894Y-6162040D01*
X1577746Y-6168186D01*
X1581099Y-6176264D01*
X1586331Y-6183731D01*
X1593088Y-6190488D01*
X1583182Y-6189878D01*
X1574393Y-6188760D01*
X1566621Y-6187084D01*
X1559915Y-6185001D01*
X1554124Y-6182512D01*
X1549298Y-6179616D01*
X1545336Y-6176416D01*
X1542186Y-6172911D01*
X1539849Y-6169202D01*
X1538224Y-6165240D01*
X1537258Y-6161176D01*
X1536954Y-6156960D01*
X1537614Y-6150660D01*
X1539544Y-6144717D01*
X1542643Y-6139332D01*
X1546860Y-6134608D01*
X1537716Y-6126734D01*
X1532585Y-6132576D01*
X1528470Y-6139484D01*
X1525778Y-6147663D01*
X1524762Y-6157214D01*
X1525016Y-6161735D01*
X1525727Y-6166205D01*
X1526946Y-6170574D01*
X1528724Y-6174790D01*
X1531061Y-6178854D01*
X1533906Y-6182715D01*
X1537411Y-6186373D01*
X1541475Y-6189726D01*
X1546148Y-6192824D01*
X1551482Y-6195568D01*
X1557528Y-6198006D01*
X1564182Y-6200089D01*
X1571599Y-6201714D01*
X1579676Y-6202934D01*
X1588566Y-6203696D01*
X1598168Y-6203950D01*
X1605534Y-6203746D01*
X1612493Y-6203137D01*
X1618945Y-6202121D01*
X1624939Y-6200749D01*
X1630426Y-6199022D01*
X1635455Y-6196939D01*
X1640027Y-6194501D01*
X1644142Y-6191808D01*
X1647748Y-6188760D01*
X1650898Y-6185458D01*
X1653590Y-6181902D01*
X1655724Y-6178143D01*
X1657451Y-6174079D01*
X1658670Y-6169863D01*
X1659382Y-6165392D01*
X1659636Y-6160770D01*
X1659280Y-6155893D01*
X1658264Y-6151168D01*
X1656537Y-6146698D01*
X1654251Y-6142482D01*
X1651355Y-6138570D01*
X1647901Y-6135065D01*
X1643938Y-6131915D01*
X1639468Y-6129274D01*
X1634540Y-6127140D01*
X1629257Y-6125514D01*
X1623517Y-6124549D01*
G37*
G36*
X1570990Y-6261608D02*
G01*
X1570990Y-6306566D01*
X1582420Y-6306566D01*
X1582420Y-6261608D01*
G37*
G36*
X1657096Y-6354572D02*
G01*
X1527048Y-6396228D01*
X1527048Y-6413246D01*
X1657096Y-6454648D01*
X1657096Y-6439916D01*
X1542288Y-6405372D01*
X1542288Y-6404610D01*
X1553311Y-6401104D01*
X1579778Y-6393535D01*
X1657096Y-6370066D01*
G37*
G36*
X1640586Y-6462014D02*
G01*
X1632204Y-6470650D01*
X1638401Y-6476542D01*
X1643278Y-6483146D01*
X1646529Y-6490462D01*
X1647698Y-6498336D01*
X1647189Y-6504228D01*
X1645666Y-6509257D01*
X1643278Y-6513474D01*
X1640078Y-6516928D01*
X1636166Y-6519621D01*
X1631645Y-6521500D01*
X1626565Y-6522618D01*
X1621028Y-6522974D01*
X1616760Y-6522770D01*
X1612341Y-6522110D01*
X1607870Y-6520992D01*
X1603248Y-6519418D01*
X1598523Y-6517385D01*
X1593646Y-6514947D01*
X1583486Y-6508546D01*
X1572666Y-6500215D01*
X1561185Y-6489852D01*
X1555089Y-6483959D01*
X1542389Y-6470548D01*
X1535684Y-6463030D01*
X1527048Y-6463030D01*
X1527048Y-6543548D01*
X1539494Y-6543548D01*
X1539443Y-6501079D01*
X1538986Y-6490157D01*
X1538478Y-6484874D01*
X1549501Y-6496253D01*
X1560271Y-6506464D01*
X1570837Y-6515404D01*
X1581251Y-6522923D01*
X1586382Y-6526174D01*
X1591462Y-6529019D01*
X1596542Y-6531457D01*
X1601571Y-6533489D01*
X1606600Y-6535115D01*
X1611579Y-6536232D01*
X1616557Y-6536944D01*
X1621536Y-6537198D01*
X1627124Y-6536893D01*
X1632407Y-6536029D01*
X1637233Y-6534607D01*
X1641703Y-6532676D01*
X1645716Y-6530187D01*
X1649272Y-6527190D01*
X1652320Y-6523735D01*
X1654911Y-6519824D01*
X1656943Y-6515455D01*
X1658416Y-6510629D01*
X1659331Y-6505448D01*
X1659636Y-6499860D01*
X1659280Y-6494068D01*
X1658213Y-6488684D01*
X1656537Y-6483604D01*
X1654302Y-6478828D01*
X1651507Y-6474358D01*
X1648256Y-6470091D01*
X1644599Y-6465976D01*
G37*
G36*
X1536192Y-6565646D02*
G01*
X1531518Y-6566509D01*
X1527911Y-6568795D01*
X1525574Y-6572199D01*
X1524762Y-6576314D01*
X1525574Y-6580631D01*
X1527911Y-6584188D01*
X1531518Y-6586575D01*
X1536192Y-6587490D01*
X1541018Y-6586626D01*
X1544726Y-6584188D01*
X1547063Y-6580631D01*
X1547876Y-6576314D01*
X1547063Y-6572199D01*
X1544726Y-6568795D01*
X1541018Y-6566509D01*
G37*
G36*
X1592580Y-6609334D02*
G01*
X1584350Y-6609537D01*
X1576628Y-6610045D01*
X1569466Y-6610908D01*
X1562811Y-6612128D01*
X1556715Y-6613702D01*
X1551127Y-6615531D01*
X1546098Y-6617716D01*
X1541627Y-6620154D01*
X1537665Y-6622897D01*
X1534210Y-6625945D01*
X1531315Y-6629247D01*
X1528978Y-6632803D01*
X1527149Y-6636613D01*
X1525828Y-6640677D01*
X1525016Y-6644944D01*
X1524762Y-6649466D01*
X1536446Y-6649466D01*
X1536801Y-6645706D01*
X1537919Y-6642150D01*
X1539798Y-6638899D01*
X1542440Y-6635851D01*
X1545844Y-6633108D01*
X1550060Y-6630720D01*
X1555038Y-6628587D01*
X1560880Y-6626809D01*
X1567535Y-6625437D01*
X1575003Y-6624421D01*
X1583385Y-6623761D01*
X1592580Y-6623558D01*
X1601673Y-6623761D01*
X1609902Y-6624421D01*
X1617268Y-6625437D01*
X1623822Y-6626809D01*
X1629511Y-6628587D01*
X1634439Y-6630720D01*
X1638554Y-6633108D01*
X1641856Y-6635851D01*
X1644446Y-6638899D01*
X1646275Y-6642150D01*
X1647342Y-6645706D01*
X1647698Y-6649466D01*
X1647342Y-6653174D01*
X1646275Y-6656679D01*
X1644446Y-6659880D01*
X1641856Y-6662877D01*
X1638554Y-6665620D01*
X1634439Y-6668008D01*
X1629511Y-6670090D01*
X1623822Y-6671868D01*
X1617268Y-6673240D01*
X1609902Y-6674256D01*
X1601673Y-6674916D01*
X1592580Y-6675120D01*
X1583385Y-6674916D01*
X1575003Y-6674256D01*
X1567535Y-6673240D01*
X1560880Y-6671868D01*
X1555038Y-6670090D01*
X1550060Y-6668008D01*
X1545844Y-6665620D01*
X1542440Y-6662877D01*
X1539798Y-6659880D01*
X1537919Y-6656679D01*
X1536801Y-6653174D01*
X1536446Y-6649466D01*
X1524762Y-6649466D01*
X1525016Y-6653936D01*
X1525828Y-6658152D01*
X1527149Y-6662166D01*
X1528978Y-6665925D01*
X1531315Y-6669481D01*
X1534210Y-6672732D01*
X1537665Y-6675729D01*
X1541627Y-6678422D01*
X1546098Y-6680860D01*
X1551127Y-6682994D01*
X1556715Y-6684822D01*
X1562811Y-6686346D01*
X1569466Y-6687515D01*
X1576628Y-6688378D01*
X1584350Y-6688937D01*
X1592580Y-6689090D01*
X1600758Y-6688937D01*
X1608378Y-6688378D01*
X1615490Y-6687515D01*
X1622044Y-6686346D01*
X1628038Y-6684822D01*
X1633575Y-6682994D01*
X1638503Y-6680860D01*
X1642973Y-6678422D01*
X1646885Y-6675729D01*
X1650288Y-6672732D01*
X1653133Y-6669481D01*
X1655470Y-6665925D01*
X1657299Y-6662166D01*
X1658620Y-6658152D01*
X1659382Y-6653936D01*
X1659636Y-6649466D01*
X1659382Y-6644944D01*
X1658620Y-6640677D01*
X1657350Y-6636613D01*
X1655521Y-6632803D01*
X1653184Y-6629247D01*
X1650339Y-6625945D01*
X1646986Y-6622897D01*
X1643075Y-6620154D01*
X1638655Y-6617716D01*
X1633677Y-6615531D01*
X1628190Y-6613702D01*
X1622145Y-6612128D01*
X1615541Y-6610908D01*
X1608429Y-6610045D01*
X1600809Y-6609537D01*
G37*
G36*
X3156204Y-4253230D02*
G01*
X3147568Y-4254754D01*
X3141472Y-4259173D01*
X3137865Y-4266184D01*
X3136646Y-4275582D01*
X3136646Y-4287520D01*
X3127248Y-4288028D01*
X3127248Y-4296156D01*
X3136646Y-4296156D01*
X3136646Y-4356100D01*
X3147060Y-4356100D01*
X3147060Y-4296156D01*
X3161792Y-4296156D01*
X3161792Y-4287520D01*
X3147060Y-4287520D01*
X3147060Y-4275836D01*
X3147618Y-4269638D01*
X3149447Y-4265218D01*
X3152546Y-4262526D01*
X3156966Y-4261612D01*
X3160826Y-4262170D01*
X3164840Y-4263644D01*
X3167126Y-4255770D01*
X3164586Y-4254754D01*
X3161842Y-4253941D01*
X3159048Y-4253433D01*
G37*
G36*
X2809748Y-4261612D02*
G01*
X2805480Y-4261916D01*
X2801518Y-4262932D01*
X2797860Y-4264558D01*
X2794508Y-4266844D01*
X2791510Y-4269790D01*
X2788818Y-4273397D01*
X2786532Y-4277664D01*
X2784602Y-4282643D01*
X2783078Y-4288282D01*
X2781960Y-4294632D01*
X2781300Y-4301642D01*
X2781046Y-4309364D01*
X2791206Y-4309364D01*
X2791561Y-4299864D01*
X2792526Y-4291736D01*
X2794101Y-4284980D01*
X2796286Y-4279493D01*
X2798978Y-4275277D01*
X2802128Y-4272330D01*
X2805734Y-4270552D01*
X2809748Y-4269994D01*
X2813659Y-4270552D01*
X2817215Y-4272330D01*
X2820314Y-4275277D01*
X2823006Y-4279493D01*
X2825140Y-4284980D01*
X2826715Y-4291736D01*
X2827680Y-4299864D01*
X2828036Y-4309364D01*
X2827680Y-4318965D01*
X2826715Y-4327194D01*
X2825140Y-4334103D01*
X2823006Y-4339691D01*
X2820314Y-4344009D01*
X2817215Y-4347057D01*
X2813659Y-4348886D01*
X2809748Y-4349496D01*
X2805734Y-4348886D01*
X2802128Y-4347057D01*
X2798978Y-4344009D01*
X2796286Y-4339742D01*
X2794101Y-4334103D01*
X2792526Y-4327194D01*
X2791561Y-4318965D01*
X2791206Y-4309364D01*
X2781046Y-4309364D01*
X2781300Y-4317085D01*
X2781960Y-4324146D01*
X2783078Y-4330547D01*
X2784602Y-4336288D01*
X2786532Y-4341317D01*
X2788818Y-4345736D01*
X2791510Y-4349445D01*
X2794508Y-4352493D01*
X2797860Y-4354830D01*
X2801518Y-4356506D01*
X2805480Y-4357522D01*
X2809748Y-4357878D01*
X2813913Y-4357522D01*
X2817825Y-4356506D01*
X2821432Y-4354830D01*
X2824734Y-4352493D01*
X2827680Y-4349445D01*
X2830322Y-4345736D01*
X2832608Y-4341317D01*
X2834487Y-4336288D01*
X2835960Y-4330547D01*
X2837027Y-4324146D01*
X2837738Y-4317085D01*
X2837942Y-4309364D01*
X2837738Y-4301642D01*
X2837078Y-4294632D01*
X2835960Y-4288282D01*
X2834487Y-4282643D01*
X2832608Y-4277664D01*
X2830322Y-4273397D01*
X2827680Y-4269790D01*
X2824734Y-4266844D01*
X2821432Y-4264558D01*
X2817825Y-4262932D01*
X2813913Y-4261916D01*
G37*
G36*
X2739644Y-4263136D02*
G01*
X2735783Y-4265117D01*
X2731363Y-4266793D01*
X2726436Y-4268266D01*
X2720848Y-4269486D01*
X2720848Y-4276344D01*
X2737104Y-4276344D01*
X2737104Y-4347464D01*
X2716530Y-4347464D01*
X2716530Y-4356100D01*
X2766314Y-4356100D01*
X2766314Y-4347464D01*
X2747518Y-4347464D01*
X2747518Y-4263136D01*
G37*
G36*
X2886456Y-4263136D02*
G01*
X2847830Y-4322064D01*
X2858008Y-4322064D01*
X2880360Y-4288536D01*
X2887726Y-4275328D01*
X2888488Y-4275328D01*
X2887929Y-4283405D01*
X2887726Y-4291838D01*
X2887726Y-4322064D01*
X2847830Y-4322064D01*
X2846832Y-4323588D01*
X2846832Y-4330192D01*
X2887726Y-4330192D01*
X2887726Y-4356100D01*
X2897378Y-4356100D01*
X2897378Y-4330192D01*
X2910078Y-4330192D01*
X2910078Y-4322064D01*
X2897378Y-4322064D01*
X2897378Y-4263136D01*
G37*
G36*
X3011424Y-4263136D02*
G01*
X3007563Y-4265117D01*
X3003194Y-4266793D01*
X2998216Y-4268266D01*
X2992628Y-4269486D01*
X2992628Y-4276344D01*
X3008884Y-4276344D01*
X3008884Y-4347464D01*
X2988056Y-4347464D01*
X2988056Y-4356100D01*
X3038094Y-4356100D01*
X3038094Y-4347464D01*
X3019298Y-4347464D01*
X3019298Y-4263136D01*
G37*
G36*
X3057652Y-4287520D02*
G01*
X3057652Y-4330954D01*
X3057956Y-4337151D01*
X3058871Y-4342536D01*
X3060446Y-4347159D01*
X3062630Y-4350969D01*
X3065526Y-4353966D01*
X3069132Y-4356150D01*
X3073450Y-4357420D01*
X3078480Y-4357878D01*
X3085084Y-4356912D01*
X3090976Y-4354271D01*
X3096310Y-4350258D01*
X3101340Y-4345178D01*
X3101594Y-4345178D01*
X3102610Y-4356100D01*
X3110992Y-4356100D01*
X3110992Y-4287520D01*
X3100832Y-4287520D01*
X3100832Y-4336796D01*
X3095904Y-4342180D01*
X3091281Y-4345889D01*
X3086557Y-4348022D01*
X3081528Y-4348734D01*
X3075330Y-4347667D01*
X3071063Y-4344263D01*
X3068574Y-4338421D01*
X3067812Y-4329938D01*
X3067812Y-4287520D01*
G37*
G36*
X2959608Y-4341114D02*
G01*
X2956560Y-4341723D01*
X2954070Y-4343501D01*
X2952343Y-4346143D01*
X2951734Y-4349496D01*
X2952343Y-4352848D01*
X2954070Y-4355490D01*
X2956560Y-4357268D01*
X2959608Y-4357878D01*
X2962656Y-4357268D01*
X2965145Y-4355490D01*
X2966872Y-4352848D01*
X2967482Y-4349496D01*
X2966872Y-4346143D01*
X2965145Y-4343501D01*
X2962656Y-4341723D01*
G37*
G36*
X2508504Y-6615430D02*
G01*
X2499868Y-6616953D01*
X2493772Y-6621373D01*
X2490165Y-6628384D01*
X2488946Y-6637781D01*
X2488946Y-6649720D01*
X2479548Y-6650228D01*
X2479548Y-6658356D01*
X2488946Y-6658356D01*
X2488946Y-6718300D01*
X2499360Y-6718300D01*
X2499360Y-6658356D01*
X2514092Y-6658356D01*
X2514092Y-6649720D01*
X2499360Y-6649720D01*
X2499360Y-6638036D01*
X2499918Y-6631838D01*
X2501747Y-6627418D01*
X2504846Y-6624726D01*
X2509266Y-6623812D01*
X2513126Y-6624370D01*
X2517140Y-6625844D01*
X2519426Y-6617970D01*
X2516886Y-6616953D01*
X2514142Y-6616141D01*
X2511348Y-6615633D01*
G37*
G36*
X2162048Y-6623812D02*
G01*
X2157780Y-6624116D01*
X2153818Y-6625132D01*
X2150160Y-6626758D01*
X2146808Y-6629044D01*
X2143810Y-6631990D01*
X2141118Y-6635597D01*
X2138832Y-6639864D01*
X2136902Y-6644843D01*
X2135378Y-6650481D01*
X2134260Y-6656831D01*
X2133600Y-6663842D01*
X2133346Y-6671564D01*
X2143506Y-6671564D01*
X2143861Y-6662064D01*
X2144826Y-6653936D01*
X2146401Y-6647180D01*
X2148586Y-6641693D01*
X2151278Y-6637477D01*
X2154428Y-6634530D01*
X2158034Y-6632752D01*
X2162048Y-6632194D01*
X2165959Y-6632752D01*
X2169515Y-6634530D01*
X2172614Y-6637477D01*
X2175306Y-6641693D01*
X2177440Y-6647180D01*
X2179015Y-6653936D01*
X2179980Y-6662064D01*
X2180336Y-6671564D01*
X2179980Y-6681165D01*
X2179015Y-6689394D01*
X2177440Y-6696303D01*
X2175306Y-6701891D01*
X2172614Y-6706209D01*
X2169515Y-6709257D01*
X2165959Y-6711086D01*
X2162048Y-6711696D01*
X2158034Y-6711086D01*
X2154428Y-6709257D01*
X2151278Y-6706209D01*
X2148586Y-6701891D01*
X2146401Y-6696303D01*
X2144826Y-6689394D01*
X2143861Y-6681165D01*
X2143506Y-6671564D01*
X2133346Y-6671564D01*
X2133600Y-6679285D01*
X2134260Y-6686346D01*
X2135378Y-6692747D01*
X2136902Y-6698488D01*
X2138832Y-6703517D01*
X2141118Y-6707936D01*
X2143810Y-6711645D01*
X2146808Y-6714693D01*
X2150160Y-6717030D01*
X2153818Y-6718706D01*
X2157780Y-6719722D01*
X2162048Y-6720078D01*
X2166213Y-6719722D01*
X2170125Y-6718706D01*
X2173732Y-6717030D01*
X2177034Y-6714693D01*
X2179980Y-6711645D01*
X2182622Y-6707936D01*
X2184908Y-6703517D01*
X2186787Y-6698488D01*
X2188260Y-6692747D01*
X2189378Y-6686346D01*
X2190038Y-6679285D01*
X2190242Y-6671564D01*
X2190038Y-6663842D01*
X2189378Y-6656831D01*
X2188260Y-6650481D01*
X2186787Y-6644843D01*
X2184908Y-6639864D01*
X2182622Y-6635597D01*
X2179980Y-6631990D01*
X2177034Y-6629044D01*
X2173732Y-6626758D01*
X2170125Y-6625132D01*
X2166213Y-6624116D01*
G37*
G36*
X2091943Y-6625336D02*
G01*
X2088083Y-6627317D01*
X2083663Y-6628993D01*
X2078736Y-6630466D01*
X2073148Y-6631686D01*
X2073148Y-6638544D01*
X2089404Y-6638544D01*
X2089404Y-6709664D01*
X2068830Y-6709664D01*
X2068830Y-6718300D01*
X2118614Y-6718300D01*
X2118614Y-6709664D01*
X2099818Y-6709664D01*
X2099818Y-6625336D01*
G37*
G36*
X2238756Y-6625336D02*
G01*
X2200130Y-6684264D01*
X2210308Y-6684264D01*
X2232660Y-6650736D01*
X2240026Y-6637528D01*
X2240788Y-6637528D01*
X2240229Y-6645605D01*
X2240026Y-6654038D01*
X2240026Y-6684264D01*
X2200130Y-6684264D01*
X2199132Y-6685788D01*
X2199132Y-6692392D01*
X2240026Y-6692392D01*
X2240026Y-6718300D01*
X2249678Y-6718300D01*
X2249678Y-6692392D01*
X2262378Y-6692392D01*
X2262378Y-6684264D01*
X2249678Y-6684264D01*
X2249678Y-6625336D01*
G37*
G36*
X2363724Y-6625336D02*
G01*
X2359863Y-6627317D01*
X2355443Y-6628993D01*
X2350516Y-6630466D01*
X2344928Y-6631686D01*
X2344928Y-6638544D01*
X2361184Y-6638544D01*
X2361184Y-6709664D01*
X2340356Y-6709664D01*
X2340356Y-6718300D01*
X2390394Y-6718300D01*
X2390394Y-6709664D01*
X2371598Y-6709664D01*
X2371598Y-6625336D01*
G37*
G36*
X2409952Y-6649720D02*
G01*
X2409952Y-6693153D01*
X2410256Y-6699351D01*
X2411171Y-6704736D01*
X2412746Y-6709359D01*
X2414930Y-6713169D01*
X2417826Y-6716166D01*
X2421432Y-6718350D01*
X2425750Y-6719620D01*
X2430780Y-6720078D01*
X2437384Y-6719112D01*
X2443276Y-6716471D01*
X2448610Y-6712458D01*
X2453640Y-6707378D01*
X2453894Y-6707378D01*
X2454910Y-6718300D01*
X2463292Y-6718300D01*
X2463292Y-6649720D01*
X2453132Y-6649720D01*
X2453132Y-6698996D01*
X2448204Y-6704380D01*
X2443581Y-6708089D01*
X2438857Y-6710222D01*
X2433828Y-6710934D01*
X2427630Y-6709867D01*
X2423363Y-6706463D01*
X2420874Y-6700621D01*
X2420112Y-6692138D01*
X2420112Y-6649720D01*
G37*
G36*
X2311908Y-6703314D02*
G01*
X2308860Y-6703923D01*
X2306370Y-6705701D01*
X2304643Y-6708343D01*
X2304034Y-6711696D01*
X2304643Y-6715048D01*
X2306370Y-6717690D01*
X2308860Y-6719468D01*
X2311908Y-6720078D01*
X2314956Y-6719468D01*
X2317445Y-6717690D01*
X2319172Y-6715048D01*
X2319782Y-6711696D01*
X2319172Y-6708343D01*
X2317445Y-6705701D01*
X2314956Y-6703923D01*
G37*
D10*
X2184400Y-2070100D02*
G01*
X2184400Y-2179065D01*
X2275839Y-2121915D02*
G01*
X2270760Y-2111502D01*
X2255012Y-2106421D01*
X2239518Y-2106421D01*
X2223770Y-2111502D01*
X2218689Y-2121915D01*
X2223770Y-2132329D01*
X2234184Y-2137410D01*
X2260345Y-2142744D01*
X2270760Y-2147823D01*
X2275839Y-2158237D01*
X2275839Y-2163571D01*
X2270760Y-2173986D01*
X2255012Y-2179065D01*
X2239518Y-2179065D01*
X2223770Y-2173986D01*
X2218689Y-2163571D01*
X2310129Y-2090673D02*
G01*
X2320544Y-2085594D01*
X2336037Y-2070100D01*
X2336037Y-2179065D01*
X2432812Y-2085594D02*
G01*
X2427478Y-2075179D01*
X2411984Y-2070100D01*
X2401570Y-2070100D01*
X2386076Y-2075179D01*
X2375662Y-2090673D01*
X2370328Y-2116836D01*
X2370328Y-2142744D01*
X2375662Y-2163571D01*
X2386076Y-2173986D01*
X2401570Y-2179065D01*
X2406650Y-2179065D01*
X2422397Y-2173986D01*
X2432812Y-2163571D01*
X2437892Y-2147823D01*
X2437892Y-2142744D01*
X2432812Y-2127250D01*
X2422397Y-2116836D01*
X2406650Y-2111502D01*
X2401570Y-2111502D01*
X2386076Y-2116836D01*
X2375662Y-2127250D01*
X2370328Y-2142744D01*
X2534665Y-2085594D02*
G01*
X2529331Y-2075179D01*
X2513838Y-2070100D01*
X2503424Y-2070100D01*
X2487929Y-2075179D01*
X2477515Y-2090673D01*
X2472181Y-2116836D01*
X2472181Y-2142744D01*
X2477515Y-2163571D01*
X2487929Y-2173986D01*
X2503424Y-2179065D01*
X2508504Y-2179065D01*
X2524252Y-2173986D01*
X2534665Y-2163571D01*
X2539745Y-2147823D01*
X2539745Y-2142744D01*
X2534665Y-2127250D01*
X2524252Y-2116836D01*
X2508504Y-2111502D01*
X2503424Y-2111502D01*
X2487929Y-2116836D01*
X2477515Y-2127250D01*
X2472181Y-2142744D01*
X2171700Y-3379470D02*
G01*
X2171700Y-3488436D01*
X2263139Y-3431286D02*
G01*
X2258060Y-3420871D01*
X2242312Y-3415792D01*
X2226818Y-3415792D01*
X2211070Y-3420871D01*
X2205989Y-3431286D01*
X2211070Y-3441700D01*
X2221484Y-3446779D01*
X2247645Y-3452113D01*
X2258060Y-3457194D01*
X2263139Y-3467607D01*
X2263139Y-3472942D01*
X2258060Y-3483355D01*
X2242312Y-3488436D01*
X2226818Y-3488436D01*
X2211070Y-3483355D01*
X2205989Y-3472942D01*
X2297429Y-3400044D02*
G01*
X2307844Y-3394963D01*
X2323337Y-3379470D01*
X2323337Y-3488436D01*
X2420112Y-3394963D02*
G01*
X2414778Y-3384550D01*
X2399284Y-3379470D01*
X2388870Y-3379470D01*
X2373376Y-3384550D01*
X2362962Y-3400044D01*
X2357628Y-3426205D01*
X2357628Y-3452113D01*
X2362962Y-3472942D01*
X2373376Y-3483355D01*
X2388870Y-3488436D01*
X2393950Y-3488436D01*
X2409697Y-3483355D01*
X2420112Y-3472942D01*
X2425192Y-3457194D01*
X2425192Y-3452113D01*
X2420112Y-3436620D01*
X2409697Y-3426205D01*
X2393950Y-3420871D01*
X2388870Y-3420871D01*
X2373376Y-3426205D01*
X2362962Y-3436620D01*
X2357628Y-3452113D01*
X2521965Y-3394963D02*
G01*
X2516631Y-3384550D01*
X2501138Y-3379470D01*
X2490724Y-3379470D01*
X2475229Y-3384550D01*
X2464815Y-3400044D01*
X2459481Y-3426205D01*
X2459481Y-3452113D01*
X2464815Y-3472942D01*
X2475229Y-3483355D01*
X2490724Y-3488436D01*
X2495804Y-3488436D01*
X2511552Y-3483355D01*
X2521965Y-3472942D01*
X2527045Y-3457194D01*
X2527045Y-3452113D01*
X2521965Y-3436620D01*
X2511552Y-3426205D01*
X2495804Y-3420871D01*
X2490724Y-3420871D01*
X2475229Y-3426205D01*
X2464815Y-3436620D01*
X2459481Y-3452113D01*
X2814065Y-5486400D02*
G01*
X2705100Y-5486400D01*
X2762250Y-5577839D02*
G01*
X2772663Y-5572760D01*
X2777743Y-5557012D01*
X2777743Y-5541518D01*
X2772663Y-5525770D01*
X2762250Y-5520689D01*
X2751836Y-5525770D01*
X2746756Y-5536184D01*
X2741422Y-5562345D01*
X2736341Y-5572760D01*
X2725927Y-5577839D01*
X2720593Y-5577839D01*
X2710179Y-5572760D01*
X2705100Y-5557012D01*
X2705100Y-5541518D01*
X2710179Y-5525770D01*
X2720593Y-5520689D01*
X2793491Y-5612129D02*
G01*
X2798572Y-5622544D01*
X2814065Y-5638037D01*
X2705100Y-5638037D01*
X2798572Y-5734812D02*
G01*
X2808986Y-5729478D01*
X2814065Y-5713984D01*
X2814065Y-5703570D01*
X2808986Y-5688076D01*
X2793491Y-5677662D01*
X2767329Y-5672328D01*
X2741422Y-5672328D01*
X2720593Y-5677662D01*
X2710179Y-5688076D01*
X2705100Y-5703570D01*
X2705100Y-5708650D01*
X2710179Y-5724397D01*
X2720593Y-5734812D01*
X2736341Y-5739892D01*
X2741422Y-5739892D01*
X2756915Y-5734812D01*
X2767329Y-5724397D01*
X2772663Y-5708650D01*
X2772663Y-5703570D01*
X2767329Y-5688076D01*
X2756915Y-5677662D01*
X2741422Y-5672328D01*
X2798572Y-5836665D02*
G01*
X2808986Y-5831331D01*
X2814065Y-5815837D01*
X2814065Y-5805423D01*
X2808986Y-5789929D01*
X2793491Y-5779515D01*
X2767329Y-5774181D01*
X2741422Y-5774181D01*
X2720593Y-5779515D01*
X2710179Y-5789929D01*
X2705100Y-5805423D01*
X2705100Y-5810504D01*
X2710179Y-5826252D01*
X2720593Y-5836665D01*
X2736341Y-5841745D01*
X2741422Y-5841745D01*
X2756915Y-5836665D01*
X2767329Y-5826252D01*
X2772663Y-5810504D01*
X2772663Y-5805423D01*
X2767329Y-5789929D01*
X2756915Y-5779515D01*
X2741422Y-5774181D01*
D11*
X2516124Y-1689862D02*
G01*
X1998218Y-1689862D01*
X1998218Y-6793737D01*
X3234181Y-6793737D01*
X3234181Y-1689862D01*
X2716275Y-1689862D01*
X1715262Y-1689862D02*
G01*
X1715262Y-6793737D01*
X3517138Y-6793737D01*
X3517138Y-1689862D01*
X1715262Y-1689862D01*
D12*
X2960979Y-2790189D02*
G01*
X3070986Y-2790189D01*
X3070986Y-2950210D01*
X2960979Y-2950210D01*
X2880995Y-2790189D02*
G01*
X2770987Y-2790189D01*
X2770987Y-2890189D01*
X2770987Y-2950210D01*
X2880995Y-2950210D01*
X2960979Y-4034789D02*
G01*
X3070986Y-4034789D01*
X3070986Y-4194810D01*
X2960979Y-4194810D01*
X2880995Y-4034789D02*
G01*
X2770987Y-4034789D01*
X2770987Y-4134789D01*
X2770987Y-4194810D01*
X2880995Y-4194810D01*
D13*
X3113786Y-2337054D02*
G01*
X3113786Y-2011679D01*
X2118613Y-2011679D01*
X2118613Y-2379979D01*
X3113786Y-2379979D01*
X3113786Y-2337054D01*
X3113786Y-3657854D02*
G01*
X3113786Y-3332479D01*
X2118613Y-3332479D01*
X2118613Y-3700779D01*
X3113786Y-3700779D01*
X3113786Y-3657854D01*
X2527045Y-6428486D02*
G01*
X2852420Y-6428486D01*
X2852420Y-5433313D01*
X2484120Y-5433313D01*
X2484120Y-6428486D01*
X2527045Y-6428486D01*
D12*
X2745079Y-6574789D02*
G01*
X2855086Y-6574789D01*
X2855086Y-6734810D01*
X2745079Y-6734810D01*
X2665095Y-6574789D02*
G01*
X2555087Y-6574789D01*
X2555087Y-6674789D01*
X2555087Y-6734810D01*
X2665095Y-6734810D01*
D11*
G75*
G01*
X2516198Y-1689801D02*
G03*
X2716197Y-1689801I99999J0D01*
D14*
G75*
G01*
X3147060Y-1968500D02*
G03*
X3146806Y-1968500I-127J20000D01*
G75*
G01*
X3147060Y-3289300D02*
G03*
X3146806Y-3289300I-127J20000D01*
G75*
G01*
X2895600Y-6461760D02*
G03*
X2895600Y-6461506I20000J127D01*
M02*
