G04 Layer: BottomPasteMaskLayer*
G04 EasyEDA v6.5.22, 2023-01-18 22:18:13*
G04 eba29598cffc45a1a2b09f1bfeec2ae0,7be1179030e74d40a97a3c751b95adb4,10*
G04 Gerber Generator version 0.2*
G04 Scale: 100 percent, Rotated: No, Reflected: No *
G04 Dimensions in millimeters *
G04 leading zeros omitted , absolute positions ,4 integer and 5 decimal *
%FSLAX45Y45*%
%MOMM*%

%AMMACRO1*21,1,$1,$2,0,0,$3*%
%ADD10MACRO1,1X1.1X0.0000*%
%ADD11O,1.7999964X0.5999988*%

%LPD*%
D10*
G01*
X2737010Y-3073401D03*
G01*
X2597010Y-3073401D03*
D11*
G01*
X2357120Y-2743200D03*
G01*
X2357120Y-2616200D03*
G01*
X2357120Y-2489200D03*
G01*
X2357120Y-2362200D03*
G01*
X2357120Y-2235200D03*
G01*
X2357120Y-2108200D03*
G01*
X2357120Y-1981200D03*
G01*
X2357120Y-1854200D03*
G01*
X2951479Y-2743200D03*
G01*
X2951479Y-2616200D03*
G01*
X2951479Y-2489200D03*
G01*
X2951479Y-2362200D03*
G01*
X2951479Y-2235200D03*
G01*
X2951479Y-2108200D03*
G01*
X2951479Y-1981200D03*
G01*
X2951479Y-1854200D03*
G01*
X2964179Y-4838700D03*
G01*
X2964179Y-4965700D03*
G01*
X2964179Y-5092700D03*
G01*
X2964179Y-5219700D03*
G01*
X2964179Y-5346700D03*
G01*
X2964179Y-5473700D03*
G01*
X2964179Y-5600700D03*
G01*
X2964179Y-5727700D03*
G01*
X2369820Y-4838700D03*
G01*
X2369820Y-4965700D03*
G01*
X2369820Y-5092700D03*
G01*
X2369820Y-5219700D03*
G01*
X2369820Y-5346700D03*
G01*
X2369820Y-5473700D03*
G01*
X2369820Y-5600700D03*
G01*
X2369820Y-5727700D03*
G01*
X2951479Y-3390900D03*
G01*
X2951479Y-3517900D03*
G01*
X2951479Y-3644900D03*
G01*
X2951479Y-3771900D03*
G01*
X2951479Y-3898900D03*
G01*
X2951479Y-4025900D03*
G01*
X2951479Y-4152900D03*
G01*
X2951479Y-4279900D03*
G01*
X2357120Y-3390900D03*
G01*
X2357120Y-3517900D03*
G01*
X2357120Y-3644900D03*
G01*
X2357120Y-3771900D03*
G01*
X2357120Y-3898900D03*
G01*
X2357120Y-4025900D03*
G01*
X2357120Y-4152900D03*
G01*
X2357120Y-4279900D03*
D10*
G01*
X2775110Y-6134101D03*
G01*
X2635110Y-6134101D03*
G01*
X2749710Y-4546601D03*
G01*
X2609710Y-4546601D03*
M02*
