G04 Layer: TopPasteMaskLayer*
G04 EasyEDA v6.5.22, 2023-01-18 22:18:13*
G04 eba29598cffc45a1a2b09f1bfeec2ae0,7be1179030e74d40a97a3c751b95adb4,10*
G04 Gerber Generator version 0.2*
G04 Scale: 100 percent, Rotated: No, Reflected: No *
G04 Dimensions in millimeters *
G04 leading zeros omitted , absolute positions ,4 integer and 5 decimal *
%FSLAX45Y45*%
%MOMM*%

%ADD10R,1.0000X1.1000*%
%ADD11O,0.5999988X1.7999964*%
%ADD12O,1.7999964X0.5999988*%

%LPD*%
D10*
G01*
X2850997Y-2870200D03*
G01*
X2991002Y-2870200D03*
G01*
X2850997Y-4114800D03*
G01*
X2991002Y-4114800D03*
D11*
G01*
X2171700Y-2494279D03*
G01*
X2298700Y-2494279D03*
G01*
X2425700Y-2494279D03*
G01*
X2552700Y-2494279D03*
G01*
X2679700Y-2494279D03*
G01*
X2806700Y-2494279D03*
G01*
X2933700Y-2494279D03*
G01*
X3060700Y-2494279D03*
G01*
X2171700Y-1899920D03*
G01*
X2298700Y-1899920D03*
G01*
X2425700Y-1899920D03*
G01*
X2552700Y-1899920D03*
G01*
X2679700Y-1899920D03*
G01*
X2806700Y-1899920D03*
G01*
X2933700Y-1899920D03*
G01*
X3060700Y-1899920D03*
G01*
X2171700Y-3815079D03*
G01*
X2298700Y-3815079D03*
G01*
X2425700Y-3815079D03*
G01*
X2552700Y-3815079D03*
G01*
X2679700Y-3815079D03*
G01*
X2806700Y-3815079D03*
G01*
X2933700Y-3815079D03*
G01*
X3060700Y-3815079D03*
G01*
X2171700Y-3220720D03*
G01*
X2298700Y-3220720D03*
G01*
X2425700Y-3220720D03*
G01*
X2552700Y-3220720D03*
G01*
X2679700Y-3220720D03*
G01*
X2806700Y-3220720D03*
G01*
X2933700Y-3220720D03*
G01*
X3060700Y-3220720D03*
D12*
G01*
X2369820Y-5486400D03*
G01*
X2369820Y-5613400D03*
G01*
X2369820Y-5740400D03*
G01*
X2369820Y-5867400D03*
G01*
X2369820Y-5994400D03*
G01*
X2369820Y-6121400D03*
G01*
X2369820Y-6248400D03*
G01*
X2369820Y-6375400D03*
G01*
X2964179Y-5486400D03*
G01*
X2964179Y-5613400D03*
G01*
X2964179Y-5740400D03*
G01*
X2964179Y-5867400D03*
G01*
X2964179Y-5994400D03*
G01*
X2964179Y-6121400D03*
G01*
X2964179Y-6248400D03*
G01*
X2964179Y-6375400D03*
D10*
G01*
X2635097Y-6654800D03*
G01*
X2775102Y-6654800D03*
M02*
